<svg width="40" height="40" viewBox="0 0 40 40" fill="none" xmlns="http://www.w3.org/2000/svg">
<path d="M24.6066 10.8013C24.8622 11.057 25.1818 11.1848 25.5652 11.1848C25.9487 11.1848 26.2683 11.057 26.5239 10.8013C26.7796 10.5457 26.9074 10.2261 26.9074 9.84264C26.9074 7.98916 26.1724 6.23155 24.8622 4.92133C23.552 3.61112 21.7944 2.87611 19.9409 2.87611C18.0874 2.87611 16.3298 3.61111 15.0196 4.92133C13.7094 6.23155 12.9744 7.98916 12.9744 9.84264V30.0392C12.9744 31.8927 13.7094 33.6503 15.0196 34.9605C16.3298 36.2707 18.0874 37.0057 19.9409 37.0057C21.7944 37.0057 23.552 36.2707 24.8622 34.9605C26.1724 33.6503 26.9074 31.8927 26.9074 30.0392L26.9074 16.3618V16.2979C26.7796 14.1248 24.9581 12.4311 22.7531 12.3992C21.6665 12.3992 20.612 12.8146 19.8131 13.6135C19.0142 14.4124 18.5987 15.467 18.5987 16.5535L18.5987 27.8022C18.5987 28.1857 18.7265 28.5053 18.9822 28.7609C19.2379 29.0166 19.5574 29.1444 19.9409 29.1444C20.6439 29.1444 21.2831 28.5053 21.2831 27.8022V16.5535C21.2831 15.7866 21.9542 15.1155 22.7531 15.0835C23.5839 15.0835 24.2231 15.7227 24.2231 16.5535L24.2231 30.0392C24.2231 31.1896 23.7757 32.2762 22.9768 33.0751C22.1779 33.874 21.0913 34.3214 19.9409 34.3214C18.7905 34.3214 17.7039 33.874 16.905 33.0751C16.1061 32.2762 15.6587 31.1896 15.6587 30.0392V9.84264C15.6587 8.69221 16.1061 7.60568 16.905 6.80677C17.7039 6.00786 18.7905 5.56046 19.9409 5.56047C22.3057 5.56047 24.2231 7.47786 24.2231 9.84265C24.1911 10.1942 24.3509 10.5457 24.6066 10.8013Z" fill="black"/>
</svg>
