<svg width="111" height="133" viewBox="0 0 111 133" fill="none" xmlns="http://www.w3.org/2000/svg">
<path d="M41.5748 40.373H31.5486L26.5356 49.2872L21.0212 40.373H2.97412L10.995 89.8961H16.5094L21.0212 131H33.0526L37.063 89.8961H42.5774L51.6009 40.373H91.0604" stroke="#32E3C3" stroke-width="4"/>
<ellipse cx="26.2668" cy="14.1161" rx="11.4343" ry="11.8578" stroke="#32E3C3" stroke-width="4"/>
<path d="M80.9994 54.8692L80.7781 52.8815L78.8705 53.0938L79.0043 55.0086L80.9994 54.8692ZM91.1276 55.8048L93.0279 56.4282L93.664 54.4892L91.7126 53.8923L91.1276 55.8048ZM103.298 64.0552L104.856 62.8009L103.578 61.2131L102.015 62.5216L103.298 64.0552ZM108 73.3578L108.761 75.2075L110.379 74.5421L109.934 72.8493L108 73.3578ZM107.642 87.348L109.547 87.9558L110.079 86.288L108.496 85.5399L107.642 87.348ZM100.607 98.2725L99.3 99.7867L100.64 100.943L101.95 99.7537L100.607 98.2725ZM87.9766 104.411L88.3081 106.383L90.0536 106.09L89.9746 104.321L87.9766 104.411ZM78.1038 104.107L76.1388 103.734L75.7812 105.62L77.6504 106.055L78.1038 104.107ZM65.5865 96.8947L64.131 98.2664L65.4469 99.6626L66.8966 98.4058L65.5865 96.8947ZM59.3726 85.1887L59.0372 83.217L56.9639 83.5697L57.4202 85.6226L59.3726 85.1887ZM60.5686 70.4199L58.7126 69.6748L57.9289 71.6271L59.9183 72.3112L60.5686 70.4199ZM67.7227 60.561L69.2003 59.2132L67.9069 57.7954L66.437 59.0291L67.7227 60.561ZM79.0182 55.41C79.0182 58.528 76.4906 61.0556 73.3727 61.0556V65.0556C78.6998 65.0556 83.0182 60.7371 83.0182 55.41H79.0182ZM79.0043 55.0086C79.0135 55.1409 79.0182 55.2747 79.0182 55.41H83.0182C83.0182 55.1816 83.0103 54.9548 82.9945 54.7297L79.0043 55.0086ZM81.2207 56.8569C82.0663 56.7628 82.9264 56.7144 83.7986 56.7144V52.7144C82.7783 52.7144 81.7704 52.771 80.7781 52.8815L81.2207 56.8569ZM83.7986 56.7144C86.1482 56.7144 88.4121 57.0657 90.5426 57.7174L91.7126 53.8923C89.2072 53.126 86.5491 52.7144 83.7986 52.7144V56.7144ZM92.7482 58.1899C92.7482 57.5714 92.8469 56.98 93.0279 56.4282L89.2272 55.1814C88.9158 56.1306 88.7482 57.1427 88.7482 58.1899H92.7482ZM98.3938 63.8354C95.2758 63.8354 92.7482 61.3078 92.7482 58.1899H88.7482C88.7482 63.517 93.0667 67.8354 98.3938 67.8354V63.8354ZM102.015 62.5216C101.034 63.3428 99.7738 63.8354 98.3938 63.8354V67.8354C100.747 67.8354 102.908 66.9901 104.582 65.5888L102.015 62.5216ZM101.741 65.3095C103.74 67.7923 105.233 70.6965 106.066 73.8662L109.934 72.8493C108.955 69.1229 107.201 65.7126 104.856 62.8009L101.741 65.3095ZM105.26 80.432C105.26 78.0766 106.703 76.0535 108.761 75.2075L107.24 71.508C103.734 72.9491 101.26 76.3993 101.26 80.432H105.26ZM108.496 85.5399C106.579 84.6336 105.26 82.6849 105.26 80.432H101.26C101.26 84.2893 103.524 87.6136 106.787 89.1562L108.496 85.5399ZM105.736 86.7402C104.491 90.6439 102.231 94.0983 99.2626 96.7913L101.95 99.7537C105.429 96.5975 108.083 92.5445 109.547 87.9558L105.736 86.7402ZM101.913 96.7583C100.224 95.3011 98.0199 94.4179 95.6144 94.4179V98.4179C97.0247 98.4179 98.3099 98.9325 99.3 99.7867L101.913 96.7583ZM95.6144 94.4179C90.2873 94.4179 85.9688 98.7364 85.9688 104.063H89.9688C89.9688 100.945 92.4964 98.4179 95.6144 98.4179V94.4179ZM85.9688 104.063C85.9688 104.21 85.9721 104.355 85.9786 104.5L89.9746 104.321C89.9707 104.236 89.9688 104.15 89.9688 104.063H85.9688ZM87.645 102.438C86.3955 102.648 85.1106 102.758 83.7986 102.758V106.758C85.3337 106.758 86.8403 106.63 88.3081 106.383L87.645 102.438ZM83.7986 102.758C81.9933 102.758 80.239 102.551 78.5572 102.159L77.6504 106.055C79.6274 106.515 81.6859 106.758 83.7986 106.758V102.758ZM76.2379 102.674C76.2379 103.038 76.2037 103.392 76.1388 103.734L80.0687 104.48C80.18 103.893 80.2379 103.289 80.2379 102.674H76.2379ZM70.5923 97.0282C73.7103 97.0282 76.2379 99.5558 76.2379 102.674H80.2379C80.2379 97.3466 75.9194 93.0282 70.5923 93.0282V97.0282ZM66.8966 98.4058C67.888 97.5463 69.1772 97.0282 70.5923 97.0282V93.0282C68.1785 93.0282 65.9674 93.9174 64.2763 95.3835L66.8966 98.4058ZM67.0419 95.5229C64.2507 92.5614 62.2381 88.8635 61.3249 84.7548L57.4202 85.6226C58.4938 90.4534 60.859 94.7948 64.131 98.2664L67.0419 95.5229ZM59.7079 87.1604C64.2608 86.386 67.7269 82.4256 67.7269 77.6517H63.7269C63.7269 80.4427 61.6996 82.7642 59.0372 83.217L59.7079 87.1604ZM67.7269 77.6517C67.7269 73.4201 65.0031 69.8298 61.219 68.5286L59.9183 72.3112C62.1371 73.0741 63.7269 75.1799 63.7269 77.6517H67.7269ZM62.4247 71.1649C63.8469 67.6218 66.1265 64.5117 69.0084 62.093L66.437 59.0291C63.059 61.8641 60.3836 65.512 58.7126 69.6748L62.4247 71.1649ZM73.3727 61.0556C71.72 61.0556 70.2355 60.348 69.2003 59.2132L66.2451 61.9089C68.0063 63.8396 70.5489 65.0556 73.3727 65.0556V61.0556ZM83.7983 92.8581C91.0447 92.8581 96.9191 86.9837 96.9191 79.7373H92.9191C92.9191 84.7746 88.8356 88.8581 83.7983 88.8581V92.8581ZM70.6775 79.7373C70.6775 86.9837 76.5519 92.8581 83.7983 92.8581V88.8581C78.761 88.8581 74.6775 84.7746 74.6775 79.7373H70.6775ZM83.7983 66.6165C76.5519 66.6165 70.6775 72.4908 70.6775 79.7373H74.6775C74.6775 74.7 78.761 70.6165 83.7983 70.6165V66.6165ZM96.9191 79.7373C96.9191 72.4908 91.0447 66.6165 83.7983 66.6165V70.6165C88.8356 70.6165 92.9191 74.7 92.9191 79.7373H96.9191Z" fill="#32E3C3"/>
</svg>
