<svg width="106" height="106" viewBox="0 0 106 106" fill="none" xmlns="http://www.w3.org/2000/svg">
<path d="M34 2V0H32V2H34ZM72 2H74V0H72V2ZM34 34V36H36V34H34ZM2 34L2 32H0V34H2ZM2 72H0V74H2V72ZM34 72H36V70H34V72ZM34 104H32V106H34V104ZM72 104V106H74V104H72ZM72 72V70H70V72H72ZM104 72V74H106V72H104ZM104 34H106V32H104V34ZM72 34H70V36L72 36V34ZM34 4H72V0H34V4ZM36 34V2H32V34H36ZM2 36L34 36V32L2 32L2 36ZM4 72V34H0V72H4ZM34 70H2V74H34V70ZM36 104V72H32V104H36ZM72 102H34V106H72V102ZM70 72V104H74V72H70ZM104 70H72V74H104V70ZM102 34V72H106V34H102ZM72 36H104V32L72 32V36ZM70 2V34H74V2H70Z" fill="#32E3C3"/>
</svg>
