<svg width="103" height="104" viewBox="0 0 103 104" fill="none" xmlns="http://www.w3.org/2000/svg">
<path d="M87.9187 88.7657C87.8063 88.8747 87.6851 88.9741 87.5565 89.0629H94.3482C95.0987 89.0629 95.8185 89.3639 96.3492 89.8997C96.8799 90.4355 97.178 91.1622 97.178 91.92C97.178 92.6778 96.8799 93.4045 96.3492 93.9403C95.8185 94.4761 95.0987 94.7771 94.3482 94.7771H80.7648C80.0143 94.7771 79.2945 94.4761 78.7638 93.9403C78.2331 93.4045 77.9349 92.6778 77.9349 91.92V78.2057C77.9349 77.448 78.2331 76.7212 78.7638 76.1854C79.2945 75.6496 80.0143 75.3486 80.7648 75.3486C81.5153 75.3486 82.2351 75.6496 82.7658 76.1854C83.2965 76.7212 83.5947 77.448 83.5947 78.2057V85.0629L83.889 84.7429C90.3032 78.2723 94.6729 70.0267 96.4455 61.0488C98.2181 52.0708 97.3141 42.7637 93.8476 34.3046C90.3811 25.8454 84.5079 18.6141 76.9708 13.525C69.4337 8.43598 60.5711 5.71782 51.5039 5.71429C50.7534 5.71429 50.0336 5.41327 49.5029 4.87745C48.9722 4.34163 48.674 3.6149 48.674 2.85714C48.674 2.09938 48.9722 1.37266 49.5029 0.836838C50.0336 0.30102 50.7534 0 51.5039 0C61.6893 0.00151795 71.6455 3.05209 80.1138 8.76602C88.5822 14.48 95.1824 22.6007 99.0799 32.1015C102.977 41.6023 103.997 52.0566 102.011 62.1426C100.024 72.2286 95.1201 81.4934 87.9187 88.7657ZM0.000236748 52C0.000236748 65.7913 5.4265 79.0177 15.0853 88.7696C24.7441 98.5214 37.8443 104 51.5039 104C52.2544 104 52.9742 103.699 53.5049 103.163C54.0356 102.627 54.3338 101.901 54.3338 101.143C54.3338 100.385 54.0356 99.6584 53.5049 99.1226C52.9742 98.5867 52.2544 98.2857 51.5039 98.2857C42.4361 98.2867 33.5717 95.5726 26.0318 90.4867C18.4919 85.4009 12.6152 78.1717 9.14499 69.7135C5.67477 61.2552 4.7669 51.9479 6.5362 42.9687C8.30551 33.9895 12.6725 25.7418 19.0849 19.2686C19.1755 19.1771 19.2773 19.0629 19.3792 18.9371V25.7943C19.3792 26.552 19.6773 27.2788 20.2081 27.8146C20.7388 28.3504 21.4585 28.6514 22.2091 28.6514C22.9596 28.6514 23.6794 28.3504 24.2101 27.8146C24.7408 27.2788 25.0389 26.552 25.0389 25.7943V12.08C25.0389 11.3222 24.7408 10.5955 24.2101 10.0597C23.6794 9.52388 22.9596 9.22286 22.2091 9.22286H8.62569C7.87516 9.22286 7.15537 9.52388 6.62467 10.0597C6.09396 10.5955 5.79581 11.3222 5.79581 12.08C5.79581 12.8378 6.09396 13.5645 6.62467 14.1003C7.15537 14.6361 7.87516 14.9371 8.62569 14.9371H15.4174C15.2952 15.0297 15.178 15.1289 15.0665 15.2343C10.2727 20.0527 6.4728 25.7831 3.88671 32.0938C1.30063 38.4046 -0.0203403 45.1705 0.000236748 52Z" fill="#32E3C3"/>
</svg>
