<svg width="1440" height="772" viewBox="0 0 1440 772" fill="none" xmlns="http://www.w3.org/2000/svg">
<path d="M1490.32 56.3713C1382.55 -0.190567 1133.78 -61.3255 1000.94 146.629C868.102 354.584 620.713 405.198 513.623 404.51C348.604 397.289 11.0392 413.175 -19.0766 534.482M1529 191.284C1489.29 106.7 1294.36 28.8196 1142.24 122.688C1008.72 205.076 882.335 429.05 459.992 431.113C122.117 432.764 -0.168262 525.67 -19.0766 571.916M-33 771C37.1327 550.77 395.016 444.007 694.627 470.827C994.238 497.647 1202.06 454.838 1337.68 319.193C1369.84 288.629 1445.38 235.5 1490.32 267.5" stroke="#D8D8D8" stroke-width="4" stroke-dasharray="2 9"/>
</svg>
