<svg width="166" height="140" viewBox="0 0 166 140" fill="none" xmlns="http://www.w3.org/2000/svg">
<path d="M50.7203 91.8417L50.3471 93.8066L54.767 94.646L52.429 90.8023L50.7203 91.8417ZM134.552 41.6169L133.814 43.4756L137.259 44.8445L136.511 41.2136L134.552 41.6169ZM24.4749 82.0833L26.4552 82.3629L26.6399 81.0551L25.5097 80.3718L24.4749 82.0833ZM20.8611 107.681L18.8807 107.402L18.2287 112.02L22.0237 109.308L20.8611 107.681ZM44.8707 90.5273L45.375 88.592L44.4694 88.356L43.708 88.9L44.8707 90.5273ZM44.2339 76.4096C44.2339 82.2796 45.95 87.8481 49.0116 92.8811L52.429 90.8023C49.7094 86.3315 48.2339 81.4747 48.2339 76.4096H44.2339ZM105.045 34.1968C88.4547 34.1968 73.3468 38.7914 62.3305 46.3239C51.3239 53.8498 44.2339 64.452 44.2339 76.4096H48.2339C48.2339 66.1584 54.3093 56.6541 64.5882 49.6259C74.8574 42.6042 89.155 38.1968 105.045 38.1968V34.1968ZM135.291 39.7583C126.372 36.214 116.04 34.1968 105.045 34.1968V38.1968C115.559 38.1968 125.387 40.127 133.814 43.4756L135.291 39.7583ZM136.511 41.2136C134.091 29.46 125.543 19.2717 113.501 12.0651C101.442 4.8483 85.7296 0.518555 68.6024 0.518555V4.51855C85.0823 4.51855 100.071 8.68938 111.447 15.4975C122.84 22.3157 130.464 31.6767 132.594 42.0203L136.511 41.2136ZM68.6024 0.518555C49.861 0.518555 32.8055 5.70365 20.3794 14.1909C7.96309 22.6715 0 34.5931 0 48.0093H4C4 36.3016 10.9464 25.4779 22.6354 17.494C34.3146 9.5169 50.5604 4.51855 68.6024 4.51855V0.518555ZM0 48.0093C0 62.4982 9.27884 75.2327 23.4401 83.7948L25.5097 80.3718C12.1015 72.265 4 60.6463 4 48.0093H0ZM22.4945 81.8037L18.8807 107.402L22.8414 107.961L26.4552 82.3629L22.4945 81.8037ZM22.0237 109.308L46.0334 92.1547L43.708 88.9L19.6984 106.054L22.0237 109.308ZM44.3665 92.4627C46.3195 92.9716 48.3147 93.4206 50.3471 93.8066L51.0934 89.8768C49.1481 89.5074 47.2404 89.078 45.375 88.592L44.3665 92.4627Z" fill="#32E3C3"/>
<path d="M132.203 112.087L131.532 110.203L130.413 110.602L130.228 111.775L132.203 112.087ZM114.826 116.069L116.424 114.866L115.736 113.952L114.598 114.082L114.826 116.069ZM128.67 134.467L127.072 135.669L129.909 139.44L130.645 134.779L128.67 134.467ZM161.856 76.4096C161.856 90.7122 149.951 103.635 131.532 110.203L132.875 113.971C152.077 107.123 165.856 93.1273 165.856 76.4096H161.856ZM105.045 38.1968C120.935 38.1968 135.233 42.6041 145.502 49.6258C155.781 56.6541 161.856 66.1583 161.856 76.4096H165.856C165.856 64.4519 158.766 53.8498 147.76 46.3239C136.743 38.7914 121.635 34.1968 105.045 34.1968V38.1968ZM48.2339 76.4096C48.2339 66.1583 54.3093 56.6541 64.5882 49.6258C74.8573 42.6041 89.155 38.1968 105.045 38.1968V34.1968C88.4547 34.1968 73.3467 38.7914 62.3304 46.3239C51.3238 53.8498 44.2339 64.4519 44.2339 76.4096H48.2339ZM105.045 114.622C89.155 114.622 74.8573 110.215 64.5882 103.193C54.3093 96.1651 48.2339 86.6608 48.2339 76.4096H44.2339C44.2339 88.3673 51.3238 98.9694 62.3304 106.495C73.3467 114.028 88.4547 118.622 105.045 118.622V114.622ZM114.598 114.082C111.493 114.437 108.302 114.622 105.045 114.622V118.622C108.453 118.622 111.797 118.429 115.053 118.056L114.598 114.082ZM130.268 133.264L116.424 114.866L113.228 117.271L127.072 135.669L130.268 133.264ZM130.228 111.775L126.694 134.155L130.645 134.779L134.179 112.399L130.228 111.775Z" fill="#32E3C3"/>
</svg>
