<svg width="308" height="308" viewBox="0 0 308 308" fill="none" xmlns="http://www.w3.org/2000/svg">
<circle cx="154" cy="154" r="154" fill="#00CAB5"/>
<path d="M69.5 178.5L116 132L160.5 178.5L233 106" stroke="#13A7A1" stroke-width="8"/>
<path d="M60.18 213.64V215H52.5V213.64H55.57V203.87C55.57 203.577 55.58 203.28 55.6 202.98L53.05 205.17C52.9633 205.243 52.8767 205.29 52.79 205.31C52.7033 205.323 52.6233 205.323 52.55 205.31C52.4767 205.297 52.4067 205.27 52.34 205.23C52.28 205.19 52.2333 205.147 52.2 205.1L51.64 204.33L55.91 200.64H57.36V213.64H60.18ZM71.7816 213.64V215H64.1016V213.64H67.1716V203.87C67.1716 203.577 67.1816 203.28 67.2016 202.98L64.6516 205.17C64.5649 205.243 64.4782 205.29 64.3916 205.31C64.3049 205.323 64.2249 205.323 64.1516 205.31C64.0782 205.297 64.0082 205.27 63.9416 205.23C63.8816 205.19 63.8349 205.147 63.8016 205.1L63.2416 204.33L67.5116 200.64H68.9616V213.64H71.7816ZM88.6103 215H86.8303V206.27H83.6303C83.5503 207.557 83.4303 208.67 83.2703 209.61C83.1103 210.543 82.917 211.34 82.6903 212C82.4703 212.653 82.2203 213.187 81.9403 213.6C81.667 214.007 81.377 214.323 81.0703 214.55C80.7703 214.777 80.457 214.93 80.1303 215.01C79.8103 215.09 79.4903 215.13 79.1703 215.13C78.6036 215.13 78.3203 215.04 78.3203 214.86V213.73H78.8403C79.067 213.73 79.297 213.69 79.5303 213.61C79.7636 213.53 79.9903 213.377 80.2103 213.15C80.437 212.923 80.6536 212.607 80.8603 212.2C81.067 211.787 81.2536 211.253 81.4203 210.6C81.5936 209.94 81.7403 209.143 81.8603 208.21C81.987 207.27 82.0836 206.157 82.1503 204.87H88.6103V215ZM98.2095 208.83C98.2095 208.417 98.1495 208.04 98.0295 207.7C97.9162 207.353 97.7462 207.057 97.5195 206.81C97.2995 206.557 97.0295 206.363 96.7095 206.23C96.3895 206.09 96.0262 206.02 95.6195 206.02C94.7662 206.02 94.0895 206.27 93.5895 206.77C93.0962 207.263 92.7895 207.95 92.6695 208.83H98.2095ZM99.6495 213.58C99.4295 213.847 99.1662 214.08 98.8595 214.28C98.5529 214.473 98.2229 214.633 97.8695 214.76C97.5229 214.887 97.1629 214.98 96.7895 215.04C96.4162 215.107 96.0462 215.14 95.6795 215.14C94.9795 215.14 94.3329 215.023 93.7395 214.79C93.1529 214.55 92.6429 214.203 92.2095 213.75C91.7829 213.29 91.4495 212.723 91.2095 212.05C90.9695 211.377 90.8495 210.603 90.8495 209.73C90.8495 209.023 90.9562 208.363 91.1695 207.75C91.3895 207.137 91.7029 206.607 92.1095 206.16C92.5162 205.707 93.0129 205.353 93.5995 205.1C94.1862 204.84 94.8462 204.71 95.5795 204.71C96.1862 204.71 96.7462 204.813 97.2595 205.02C97.7795 205.22 98.2262 205.513 98.5995 205.9C98.9795 206.28 99.2762 206.753 99.4895 207.32C99.7029 207.88 99.8095 208.52 99.8095 209.24C99.8095 209.52 99.7795 209.707 99.7195 209.8C99.6595 209.893 99.5462 209.94 99.3795 209.94H92.6095C92.6295 210.58 92.7162 211.137 92.8695 211.61C93.0295 212.083 93.2495 212.48 93.5295 212.8C93.8095 213.113 94.1429 213.35 94.5295 213.51C94.9162 213.663 95.3495 213.74 95.8295 213.74C96.2762 213.74 96.6595 213.69 96.9795 213.59C97.3062 213.483 97.5862 213.37 97.8195 213.25C98.0529 213.13 98.2462 213.02 98.3995 212.92C98.5595 212.813 98.6962 212.76 98.8095 212.76C98.9562 212.76 99.0695 212.817 99.1495 212.93L99.6495 213.58ZM110.26 206.23H106.37V215H104.59V206.23H100.7V204.87H110.26V206.23ZM116.944 208.45H130.244V209.75H116.944V208.45ZM145.12 206.67C145.067 206.743 145.013 206.8 144.96 206.84C144.907 206.88 144.833 206.9 144.74 206.9C144.64 206.9 144.53 206.86 144.41 206.78C144.29 206.693 144.14 206.6 143.96 206.5C143.787 206.4 143.57 206.31 143.31 206.23C143.057 206.143 142.743 206.1 142.37 206.1C141.87 206.1 141.43 206.19 141.05 206.37C140.67 206.543 140.35 206.797 140.09 207.13C139.837 207.463 139.643 207.867 139.51 208.34C139.383 208.813 139.32 209.343 139.32 209.93C139.32 210.543 139.39 211.09 139.53 211.57C139.67 212.043 139.867 212.443 140.12 212.77C140.38 213.09 140.69 213.337 141.05 213.51C141.417 213.677 141.827 213.76 142.28 213.76C142.713 213.76 143.07 213.71 143.35 213.61C143.63 213.503 143.86 213.387 144.04 213.26C144.227 213.133 144.38 213.02 144.5 212.92C144.627 212.813 144.75 212.76 144.87 212.76C145.017 212.76 145.13 212.817 145.21 212.93L145.71 213.58C145.49 213.853 145.24 214.087 144.96 214.28C144.68 214.473 144.377 214.637 144.05 214.77C143.73 214.897 143.393 214.99 143.04 215.05C142.687 215.11 142.327 215.14 141.96 215.14C141.327 215.14 140.737 215.023 140.19 214.79C139.65 214.557 139.18 214.22 138.78 213.78C138.38 213.333 138.067 212.787 137.84 212.14C137.613 211.493 137.5 210.757 137.5 209.93C137.5 209.177 137.603 208.48 137.81 207.84C138.023 207.2 138.33 206.65 138.73 206.19C139.137 205.723 139.633 205.36 140.22 205.1C140.813 204.84 141.493 204.71 142.26 204.71C142.973 204.71 143.6 204.827 144.14 205.06C144.687 205.287 145.17 205.61 145.59 206.03L145.12 206.67ZM149.411 212.56C149.738 213 150.094 213.31 150.481 213.49C150.868 213.67 151.301 213.76 151.781 213.76C152.728 213.76 153.454 213.423 153.961 212.75C154.468 212.077 154.721 211.117 154.721 209.87C154.721 209.21 154.661 208.643 154.541 208.17C154.428 207.697 154.261 207.31 154.041 207.01C153.821 206.703 153.551 206.48 153.231 206.34C152.911 206.2 152.548 206.13 152.141 206.13C151.561 206.13 151.051 206.263 150.611 206.53C150.178 206.797 149.778 207.173 149.411 207.66V212.56ZM149.321 206.44C149.748 205.913 150.241 205.49 150.801 205.17C151.361 204.85 152.001 204.69 152.721 204.69C153.308 204.69 153.838 204.803 154.311 205.03C154.784 205.25 155.188 205.58 155.521 206.02C155.854 206.453 156.111 206.993 156.291 207.64C156.471 208.287 156.561 209.03 156.561 209.87C156.561 210.617 156.461 211.313 156.261 211.96C156.061 212.6 155.771 213.157 155.391 213.63C155.018 214.097 154.558 214.467 154.011 214.74C153.471 215.007 152.861 215.14 152.181 215.14C151.561 215.14 151.028 215.037 150.581 214.83C150.141 214.617 149.751 214.323 149.411 213.95V218.43H147.621V204.87H148.691C148.944 204.87 149.101 204.993 149.161 205.24L149.321 206.44ZM165.592 208.83C165.592 208.417 165.532 208.04 165.412 207.7C165.299 207.353 165.129 207.057 164.902 206.81C164.682 206.557 164.412 206.363 164.092 206.23C163.772 206.09 163.409 206.02 163.002 206.02C162.149 206.02 161.472 206.27 160.972 206.77C160.479 207.263 160.172 207.95 160.052 208.83H165.592ZM167.032 213.58C166.812 213.847 166.549 214.08 166.242 214.28C165.936 214.473 165.606 214.633 165.252 214.76C164.906 214.887 164.546 214.98 164.172 215.04C163.799 215.107 163.429 215.14 163.062 215.14C162.362 215.14 161.716 215.023 161.122 214.79C160.536 214.55 160.026 214.203 159.592 213.75C159.166 213.29 158.832 212.723 158.592 212.05C158.352 211.377 158.232 210.603 158.232 209.73C158.232 209.023 158.339 208.363 158.552 207.75C158.772 207.137 159.086 206.607 159.492 206.16C159.899 205.707 160.396 205.353 160.982 205.1C161.569 204.84 162.229 204.71 162.962 204.71C163.569 204.71 164.129 204.813 164.642 205.02C165.162 205.22 165.609 205.513 165.982 205.9C166.362 206.28 166.659 206.753 166.872 207.32C167.086 207.88 167.192 208.52 167.192 209.24C167.192 209.52 167.162 209.707 167.102 209.8C167.042 209.893 166.929 209.94 166.762 209.94H159.992C160.012 210.58 160.099 211.137 160.252 211.61C160.412 212.083 160.632 212.48 160.912 212.8C161.192 213.113 161.526 213.35 161.912 213.51C162.299 213.663 162.732 213.74 163.212 213.74C163.659 213.74 164.042 213.69 164.362 213.59C164.689 213.483 164.969 213.37 165.202 213.25C165.436 213.13 165.629 213.02 165.782 212.92C165.942 212.813 166.079 212.76 166.192 212.76C166.339 212.76 166.452 212.817 166.532 212.93L167.032 213.58ZM176.281 213.7V206.27H173.071C173.004 207.31 172.911 208.23 172.791 209.03C172.671 209.83 172.531 210.533 172.371 211.14C172.217 211.74 172.044 212.25 171.851 212.67C171.664 213.09 171.467 213.433 171.261 213.7H176.281ZM179.861 213.65V217.94C179.861 218.113 179.811 218.247 179.711 218.34C179.617 218.44 179.494 218.49 179.341 218.49H178.251V215H169.731V217.98C169.731 218.107 169.691 218.223 169.611 218.33C169.537 218.437 169.414 218.49 169.241 218.49H168.121V213.7H168.451C168.684 213.7 168.914 213.66 169.141 213.58C169.374 213.5 169.597 213.35 169.811 213.13C170.024 212.903 170.224 212.587 170.411 212.18C170.604 211.773 170.777 211.243 170.931 210.59C171.084 209.937 171.217 209.143 171.331 208.21C171.444 207.27 171.534 206.157 171.601 204.87H178.011V213.65H179.861ZM190.104 204.87V215H188.314V210.26H183.454V215H181.664V204.87H183.454V208.91H188.314V204.87H190.104ZM201.623 204.87V215H199.843V208.12C199.843 207.987 199.85 207.843 199.863 207.69C199.877 207.537 199.893 207.383 199.913 207.23C199.853 207.363 199.793 207.487 199.733 207.6C199.673 207.713 199.61 207.817 199.543 207.91L194.653 214.56C194.58 214.667 194.487 214.77 194.373 214.87C194.267 214.963 194.147 215.01 194.013 215.01H192.933V204.88H194.723V211.76C194.723 211.887 194.717 212.027 194.703 212.18C194.69 212.327 194.673 212.477 194.653 212.63C194.713 212.503 194.773 212.387 194.833 212.28C194.893 212.167 194.953 212.063 195.013 211.97L199.903 205.32C199.977 205.213 200.07 205.113 200.183 205.02C200.297 204.92 200.42 204.87 200.553 204.87H201.623ZM213.127 204.87V215H211.347V208.12C211.347 207.987 211.354 207.843 211.367 207.69C211.381 207.537 211.397 207.383 211.417 207.23C211.357 207.363 211.297 207.487 211.237 207.6C211.177 207.713 211.114 207.817 211.047 207.91L206.157 214.56C206.084 214.667 205.991 214.77 205.877 214.87C205.771 214.963 205.651 215.01 205.517 215.01H204.437V204.88H206.227V211.76C206.227 211.887 206.221 212.027 206.207 212.18C206.194 212.327 206.177 212.477 206.157 212.63C206.217 212.503 206.277 212.387 206.337 212.28C206.397 212.167 206.457 212.063 206.517 211.97L211.407 205.32C211.481 205.213 211.574 205.113 211.687 205.02C211.801 204.92 211.924 204.87 212.057 204.87H213.127ZM208.897 202.42C209.171 202.42 209.401 202.39 209.587 202.33C209.774 202.263 209.924 202.16 210.037 202.02C210.157 201.88 210.244 201.7 210.297 201.48C210.351 201.26 210.377 200.99 210.377 200.67H211.417C211.544 200.67 211.641 200.727 211.707 200.84C211.774 200.953 211.807 201.077 211.807 201.21C211.807 201.543 211.741 201.843 211.607 202.11C211.474 202.377 211.281 202.607 211.027 202.8C210.781 202.987 210.477 203.13 210.117 203.23C209.757 203.33 209.351 203.38 208.897 203.38C208.444 203.38 208.037 203.33 207.677 203.23C207.317 203.13 207.011 202.987 206.757 202.8C206.511 202.607 206.321 202.377 206.187 202.11C206.054 201.843 205.987 201.543 205.987 201.21C205.987 201.077 206.021 200.953 206.087 200.84C206.154 200.727 206.251 200.67 206.377 200.67H207.417C207.417 200.99 207.444 201.26 207.497 201.48C207.551 201.7 207.634 201.88 207.747 202.02C207.867 202.16 208.021 202.263 208.207 202.33C208.394 202.39 208.624 202.42 208.897 202.42ZM225.328 204.71C226.068 204.71 226.735 204.833 227.328 205.08C227.922 205.327 228.428 205.677 228.848 206.13C229.268 206.583 229.588 207.133 229.808 207.78C230.035 208.42 230.148 209.137 230.148 209.93C230.148 210.73 230.035 211.45 229.808 212.09C229.588 212.73 229.268 213.277 228.848 213.73C228.428 214.183 227.922 214.533 227.328 214.78C226.735 215.02 226.068 215.14 225.328 215.14C224.582 215.14 223.908 215.02 223.308 214.78C222.715 214.533 222.208 214.183 221.788 213.73C221.368 213.277 221.045 212.73 220.818 212.09C220.598 211.45 220.488 210.73 220.488 209.93C220.488 209.137 220.598 208.42 220.818 207.78C221.045 207.133 221.368 206.583 221.788 206.13C222.208 205.677 222.715 205.327 223.308 205.08C223.908 204.833 224.582 204.71 225.328 204.71ZM225.328 213.75C226.328 213.75 227.075 213.417 227.568 212.75C228.062 212.077 228.308 211.14 228.308 209.94C228.308 208.733 228.062 207.793 227.568 207.12C227.075 206.447 226.328 206.11 225.328 206.11C224.822 206.11 224.378 206.197 223.998 206.37C223.625 206.543 223.312 206.793 223.058 207.12C222.812 207.447 222.625 207.85 222.498 208.33C222.378 208.803 222.318 209.34 222.318 209.94C222.318 211.14 222.565 212.077 223.058 212.75C223.558 213.417 224.315 213.75 225.328 213.75ZM240.846 215H239.056V206.23H234.196V215H232.406V204.87H240.846V215ZM247.566 213.7C247.926 213.7 248.236 213.657 248.496 213.57C248.762 213.477 248.982 213.35 249.156 213.19C249.329 213.023 249.459 212.83 249.546 212.61C249.632 212.39 249.676 212.15 249.676 211.89C249.676 211.65 249.639 211.427 249.566 211.22C249.492 211.007 249.369 210.82 249.196 210.66C249.029 210.5 248.809 210.373 248.536 210.28C248.262 210.187 247.929 210.14 247.536 210.14H245.376V213.7H247.566ZM247.536 208.84C248.236 208.84 248.822 208.923 249.296 209.09C249.776 209.257 250.159 209.48 250.446 209.76C250.739 210.04 250.949 210.363 251.076 210.73C251.202 211.097 251.266 211.477 251.266 211.87C251.266 212.323 251.186 212.743 251.026 213.13C250.866 213.51 250.629 213.84 250.316 214.12C250.002 214.393 249.616 214.61 249.156 214.77C248.696 214.923 248.166 215 247.566 215H243.676V204.87H245.376V208.84H247.536ZM255.276 204.87V215H253.496V204.87H255.276ZM266.529 206.23H262.639V215H260.859V206.23H256.969V204.87H266.529V206.23ZM58.46 236.67C58.4067 236.743 58.3533 236.8 58.3 236.84C58.2467 236.88 58.1733 236.9 58.08 236.9C57.98 236.9 57.87 236.86 57.75 236.78C57.63 236.693 57.48 236.6 57.3 236.5C57.1267 236.4 56.91 236.31 56.65 236.23C56.3967 236.143 56.0833 236.1 55.71 236.1C55.21 236.1 54.77 236.19 54.39 236.37C54.01 236.543 53.69 236.797 53.43 237.13C53.1767 237.463 52.9833 237.867 52.85 238.34C52.7233 238.813 52.66 239.343 52.66 239.93C52.66 240.543 52.73 241.09 52.87 241.57C53.01 242.043 53.2067 242.443 53.46 242.77C53.72 243.09 54.03 243.337 54.39 243.51C54.7567 243.677 55.1667 243.76 55.62 243.76C56.0533 243.76 56.41 243.71 56.69 243.61C56.97 243.503 57.2 243.387 57.38 243.26C57.5667 243.133 57.72 243.02 57.84 242.92C57.9667 242.813 58.09 242.76 58.21 242.76C58.3567 242.76 58.47 242.817 58.55 242.93L59.05 243.58C58.83 243.853 58.58 244.087 58.3 244.28C58.02 244.473 57.7167 244.637 57.39 244.77C57.07 244.897 56.7333 244.99 56.38 245.05C56.0267 245.11 55.6667 245.14 55.3 245.14C54.6667 245.14 54.0767 245.023 53.53 244.79C52.99 244.557 52.52 244.22 52.12 243.78C51.72 243.333 51.4067 242.787 51.18 242.14C50.9533 241.493 50.84 240.757 50.84 239.93C50.84 239.177 50.9433 238.48 51.15 237.84C51.3633 237.2 51.67 236.65 52.07 236.19C52.4767 235.723 52.9733 235.36 53.56 235.1C54.1533 234.84 54.8333 234.71 55.6 234.71C56.3133 234.71 56.94 234.827 57.48 235.06C58.0267 235.287 58.51 235.61 58.93 236.03L58.46 236.67ZM65.055 234.71C65.795 234.71 66.4617 234.833 67.055 235.08C67.6483 235.327 68.155 235.677 68.575 236.13C68.995 236.583 69.315 237.133 69.535 237.78C69.7617 238.42 69.875 239.137 69.875 239.93C69.875 240.73 69.7617 241.45 69.535 242.09C69.315 242.73 68.995 243.277 68.575 243.73C68.155 244.183 67.6483 244.533 67.055 244.78C66.4617 245.02 65.795 245.14 65.055 245.14C64.3083 245.14 63.635 245.02 63.035 244.78C62.4417 244.533 61.935 244.183 61.515 243.73C61.095 243.277 60.7717 242.73 60.545 242.09C60.325 241.45 60.215 240.73 60.215 239.93C60.215 239.137 60.325 238.42 60.545 237.78C60.7717 237.133 61.095 236.583 61.515 236.13C61.935 235.677 62.4417 235.327 63.035 235.08C63.635 234.833 64.3083 234.71 65.055 234.71ZM65.055 243.75C66.055 243.75 66.8017 243.417 67.295 242.75C67.7883 242.077 68.035 241.14 68.035 239.94C68.035 238.733 67.7883 237.793 67.295 237.12C66.8017 236.447 66.055 236.11 65.055 236.11C64.5483 236.11 64.105 236.197 63.725 236.37C63.3517 236.543 63.0383 236.793 62.785 237.12C62.5383 237.447 62.3517 237.85 62.225 238.33C62.105 238.803 62.045 239.34 62.045 239.94C62.045 241.14 62.2917 242.077 62.785 242.75C63.285 243.417 64.0417 243.75 65.055 243.75ZM80.1425 236.23H76.2525V245H74.4725V236.23H70.5825V234.87H80.1425V236.23ZM83.6297 242.56C83.9564 243 84.313 243.31 84.6997 243.49C85.0864 243.67 85.5197 243.76 85.9997 243.76C86.9464 243.76 87.673 243.423 88.1797 242.75C88.6864 242.077 88.9397 241.117 88.9397 239.87C88.9397 239.21 88.8797 238.643 88.7597 238.17C88.6464 237.697 88.4797 237.31 88.2597 237.01C88.0397 236.703 87.7697 236.48 87.4497 236.34C87.1297 236.2 86.7664 236.13 86.3597 236.13C85.7797 236.13 85.2697 236.263 84.8297 236.53C84.3964 236.797 83.9964 237.173 83.6297 237.66V242.56ZM83.5397 236.44C83.9664 235.913 84.4597 235.49 85.0197 235.17C85.5797 234.85 86.2197 234.69 86.9397 234.69C87.5264 234.69 88.0564 234.803 88.5297 235.03C89.003 235.25 89.4064 235.58 89.7397 236.02C90.073 236.453 90.3297 236.993 90.5097 237.64C90.6897 238.287 90.7797 239.03 90.7797 239.87C90.7797 240.617 90.6797 241.313 90.4797 241.96C90.2797 242.6 89.9897 243.157 89.6097 243.63C89.2364 244.097 88.7764 244.467 88.2297 244.74C87.6897 245.007 87.0797 245.14 86.3997 245.14C85.7797 245.14 85.2464 245.037 84.7997 244.83C84.3597 244.617 83.9697 244.323 83.6297 243.95V248.43H81.8397V234.87H82.9097C83.163 234.87 83.3197 234.993 83.3797 235.24L83.5397 236.44ZM101.498 234.87L95.8477 247.99C95.7877 248.123 95.711 248.23 95.6177 248.31C95.531 248.39 95.3943 248.43 95.2077 248.43H93.8877L95.7377 244.41L91.5577 234.87H93.0977C93.251 234.87 93.371 234.91 93.4577 234.99C93.551 235.063 93.6143 235.147 93.6477 235.24L96.3577 241.62C96.4643 241.9 96.5543 242.193 96.6277 242.5C96.721 242.187 96.821 241.89 96.9277 241.61L99.5577 235.24C99.5977 235.133 99.6643 235.047 99.7577 234.98C99.8577 234.907 99.9677 234.87 100.088 234.87H101.498ZM109.113 243.7V236.27H105.903C105.836 237.31 105.743 238.23 105.623 239.03C105.503 239.83 105.363 240.533 105.203 241.14C105.049 241.74 104.876 242.25 104.683 242.67C104.496 243.09 104.299 243.433 104.093 243.7H109.113ZM112.693 243.65V247.94C112.693 248.113 112.643 248.247 112.543 248.34C112.449 248.44 112.326 248.49 112.173 248.49H111.083V245H102.563V247.98C102.563 248.107 102.523 248.223 102.443 248.33C102.369 248.437 102.246 248.49 102.073 248.49H100.953V243.7H101.283C101.516 243.7 101.746 243.66 101.973 243.58C102.206 243.5 102.429 243.35 102.643 243.13C102.856 242.903 103.056 242.587 103.243 242.18C103.436 241.773 103.609 241.243 103.763 240.59C103.916 239.937 104.049 239.143 104.163 238.21C104.276 237.27 104.366 236.157 104.433 234.87H110.843V243.65H112.693ZM122.936 234.87V245H121.146V240.26H116.286V245H114.496V234.87H116.286V238.91H121.146V234.87H122.936ZM134.455 234.87V245H132.675V238.12C132.675 237.987 132.682 237.843 132.695 237.69C132.709 237.537 132.725 237.383 132.745 237.23C132.685 237.363 132.625 237.487 132.565 237.6C132.505 237.713 132.442 237.817 132.375 237.91L127.485 244.56C127.412 244.667 127.319 244.77 127.205 244.87C127.099 244.963 126.979 245.01 126.845 245.01H125.765V234.88H127.555V241.76C127.555 241.887 127.549 242.027 127.535 242.18C127.522 242.327 127.505 242.477 127.485 242.63C127.545 242.503 127.605 242.387 127.665 242.28C127.725 242.167 127.785 242.063 127.845 241.97L132.735 235.32C132.809 235.213 132.902 235.113 133.015 235.02C133.129 234.92 133.252 234.87 133.385 234.87H134.455ZM143.419 235.37C143.513 235.223 143.636 235.103 143.789 235.01C143.943 234.917 144.106 234.87 144.279 234.87H145.669L143.039 238.73C142.879 238.977 142.713 239.18 142.539 239.34C142.366 239.493 142.153 239.613 141.899 239.7C142.219 239.787 142.489 239.923 142.709 240.11C142.929 240.29 143.126 240.523 143.299 240.81L145.959 245H144.719C144.399 245 144.153 244.947 143.979 244.84C143.806 244.733 143.656 244.58 143.529 244.38L141.559 241.23C141.246 240.71 140.776 240.45 140.149 240.45H139.059V245.01H137.269V234.87H139.059V239.25H140.019C140.553 239.25 140.969 239.023 141.269 238.57L143.419 235.37ZM153.111 240.44C152.291 240.467 151.591 240.533 151.011 240.64C150.438 240.74 149.968 240.873 149.601 241.04C149.241 241.207 148.978 241.403 148.811 241.63C148.651 241.857 148.571 242.11 148.571 242.39C148.571 242.657 148.614 242.887 148.701 243.08C148.788 243.273 148.904 243.433 149.051 243.56C149.204 243.68 149.381 243.77 149.581 243.83C149.788 243.883 150.008 243.91 150.241 243.91C150.554 243.91 150.841 243.88 151.101 243.82C151.361 243.753 151.604 243.66 151.831 243.54C152.064 243.42 152.284 243.277 152.491 243.11C152.704 242.943 152.911 242.753 153.111 242.54V240.44ZM147.361 236.3C147.921 235.76 148.524 235.357 149.171 235.09C149.818 234.823 150.534 234.69 151.321 234.69C151.888 234.69 152.391 234.783 152.831 234.97C153.271 235.157 153.641 235.417 153.941 235.75C154.241 236.083 154.468 236.487 154.621 236.96C154.774 237.433 154.851 237.953 154.851 238.52V245H154.061C153.888 245 153.754 244.973 153.661 244.92C153.568 244.86 153.494 244.747 153.441 244.58L153.241 243.62C152.974 243.867 152.714 244.087 152.461 244.28C152.208 244.467 151.941 244.627 151.661 244.76C151.381 244.887 151.081 244.983 150.761 245.05C150.448 245.123 150.098 245.16 149.711 245.16C149.318 245.16 148.948 245.107 148.601 245C148.254 244.887 147.951 244.72 147.691 244.5C147.438 244.28 147.234 244.003 147.081 243.67C146.934 243.33 146.861 242.93 146.861 242.47C146.861 242.07 146.971 241.687 147.191 241.32C147.411 240.947 147.768 240.617 148.261 240.33C148.754 240.043 149.398 239.81 150.191 239.63C150.984 239.443 151.958 239.337 153.111 239.31V238.52C153.111 237.733 152.941 237.14 152.601 236.74C152.261 236.333 151.764 236.13 151.111 236.13C150.671 236.13 150.301 236.187 150.001 236.3C149.708 236.407 149.451 236.53 149.231 236.67C149.018 236.803 148.831 236.927 148.671 237.04C148.518 237.147 148.364 237.2 148.211 237.2C148.091 237.2 147.988 237.17 147.901 237.11C147.814 237.043 147.741 236.963 147.681 236.87L147.361 236.3Z" fill="white"/>
<path d="M50 164.545L72.3948 142.298L104.307 174L157.495 121.163L171.395 135L241.5 65.2419M221.345 65.2419L244.859 61.9048L243.739 83.5958" stroke="white" stroke-width="8"/>
</svg>
