<?xml version="1.0" encoding="UTF-8" standalone="no"?>
<!DOCTYPE svg PUBLIC "-//W3C//DTD SVG 1.1//EN" "http://www.w3.org/Graphics/SVG/1.1/DTD/svg11.dtd">
<svg version="1.1" xmlns="http://www.w3.org/2000/svg" xmlns:xlink="http://www.w3.org/1999/xlink" preserveAspectRatio="xMidYMid meet" viewBox="0 0 640 640" width="80" height="106"><defs><path d="M82.93 398.78C82.93 275.89 291.82 26.62 300.6 16.09C307.62 7.31 321.67 7.31 328.69 16.09C337.47 26.62 546.36 274.14 546.36 398.78C546.36 525.17 442.79 630.49 314.65 630.49C186.5 630.49 82.93 526.92 82.93 398.78Z" id="a47jXaTTXv"></path><path d="M293.84 545.35L331 545.35L331 437.07L438.73 437.07L438.73 401.01L331 401.01L331 292.74L293.84 292.74L293.84 401.01L186.12 401.01L186.12 437.07L293.84 437.07L293.84 545.35Z" id="a4MADBABO8"></path></defs><g><g><g><use xlink:href="#a47jXaTTXv" opacity="1" fill="#000000" fill-opacity="0"></use><g><use xlink:href="#a47jXaTTXv" opacity="1" fill-opacity="0" stroke="#32e3c3" stroke-width="15" stroke-opacity="1"></use></g></g><g><use xlink:href="#a4MADBABO8" opacity="1" fill="#32e3c3" fill-opacity="1"></use><g><use xlink:href="#a4MADBABO8" opacity="1" fill-opacity="0" stroke="#000000" stroke-width="50" stroke-opacity="0"></use></g></g></g></g></svg>