<svg width="124" height="124" viewBox="0 0 124 124" fill="none" xmlns="http://www.w3.org/2000/svg">
<path d="M122 72.0005V51.8675L107.227 49.0265C106.232 45.545 104.842 42.227 103.117 39.1265L111.497 26.747L97.2605 12.5105L84.9065 20.876C81.755 19.112 78.3785 17.699 74.8325 16.6925L72.005 2H51.872L49.043 16.706C45.485 17.72 42.0965 19.1435 38.936 20.9195L26.6255 12.5825L12.389 26.819L20.7695 39.1955C19.037 42.32 17.6615 45.665 16.6715 49.175L2 52.001V72.134L16.73 74.9705C17.7335 78.47 19.1255 81.8015 20.8685 84.9155L12.425 97.3805L26.66 111.617L39.1625 103.149C42.2615 104.87 45.5765 106.247 49.0535 107.238L51.896 122H72.029L74.87 107.237C78.374 106.239 81.7115 104.847 84.8315 103.109L97.337 111.578L111.574 97.3415L103.103 84.833C104.846 81.704 106.253 78.353 107.25 74.8355L122 72.0005ZM61.979 93.278C44.708 93.278 30.7055 79.277 30.7055 62.0045C30.7055 44.732 44.7065 30.731 61.979 30.731C79.2515 30.731 93.2525 44.732 93.2525 62.0045C93.2525 79.277 79.25 93.278 61.979 93.278Z" stroke="#32E3C3" stroke-width="4"/>
</svg>
