<svg width="133" height="123" viewBox="0 0 133 123" fill="none" xmlns="http://www.w3.org/2000/svg">
<mask id="path-1-outside-1" maskUnits="userSpaceOnUse" x="0" y="0" width="133" height="123" fill="black">
<rect fill="white" width="133" height="123"/>
<path fill-rule="evenodd" clip-rule="evenodd" d="M12.3864 69.0558C11.1305 67.3446 9.98722 65.5158 8.98277 63.5657C8.22224 62.0897 7.57304 60.5861 7.0089 59.0701L13.1332 51.9376C12.6165 49.6173 12.3226 47.2106 12.3226 44.7339C12.3226 44.6952 12.3257 44.6572 12.3288 44.6191C12.3319 44.5806 12.3351 44.542 12.3351 44.5025L5 38.3845C5.59041 34.7832 6.66991 31.2783 8.18972 27.9635L17.3436 27.2667C18.8584 24.8363 20.6696 22.6197 22.7423 20.6646L21.9205 11.5558C23.374 10.5489 24.9013 9.61446 26.5175 8.78013C28.1323 7.9508 29.781 7.24906 31.4434 6.65115L38.1868 12.4427C40.5222 11.9211 42.9414 11.6221 45.4344 11.6221C45.8278 11.6221 46.2145 11.6485 46.6017 11.675C46.7918 11.688 46.9819 11.701 47.1731 11.7109L52.7707 5C56.3557 5.68548 59.8331 6.84253 63.1066 8.45115L63.7683 17.1697C66.1788 18.7771 68.3453 20.7059 70.2541 22.8687L78.7838 22.0994C79.6919 23.4403 80.5388 24.8413 81.298 26.3173C82.3025 28.2674 83.1268 30.2588 83.791 32.2752L78.0183 39.0024C78.3422 40.8674 78.5449 42.7775 78.5449 44.7351C78.5449 45.1596 78.5169 45.5775 78.489 45.9954C78.4768 46.1772 78.4647 46.359 78.4548 46.5414L85.167 52.1403C84.4652 56.023 83.2019 59.7881 81.4231 63.3105L72.3268 64.001C71.0634 65.7635 69.6337 67.3884 68.0563 68.8681L68.8794 77.9707C67.2745 79.1215 65.5709 80.171 63.7646 81.1016C61.9596 82.031 60.1158 82.8078 58.2508 83.4483L51.1208 77.3253C49.2695 77.6455 47.3782 77.8469 45.4356 77.8469C45.3849 77.8469 45.3355 77.8428 45.2861 77.8388C45.2367 77.8347 45.1873 77.8306 45.1367 77.8306L39.0324 85.147C35.1284 84.5515 31.3321 83.3932 27.7633 81.7083L27.0453 72.268C25.2541 71.0684 23.5842 69.7012 22.0606 68.1814L12.3864 69.0558ZM63.9647 35.246C58.611 24.8475 45.8396 20.7622 35.4449 26.1184C25.0489 31.4722 20.9611 44.2423 26.3173 54.6383C31.671 65.0342 44.4424 69.1208 54.8371 63.7659C65.2331 58.4109 69.321 45.6408 63.9647 35.246ZM112.528 77.1504L117.042 74.6599C118.865 75.807 120.532 77.1879 121.987 78.774L120.485 83.7125C121.467 85.1109 122.244 86.632 122.829 88.2356L127.686 89.6366C127.9 90.5697 128.064 91.5241 128.164 92.4973C128.3 93.7832 128.327 95.0566 128.259 96.3075L123.643 98.7667C123.422 99.8624 123.123 100.959 122.708 102.035C122.62 102.256 122.522 102.465 122.423 102.674C122.371 102.785 122.318 102.896 122.267 103.008L124.76 107.527C123.541 109.51 122.038 111.314 120.305 112.868L115.155 111.299C114.08 111.996 112.946 112.584 111.76 113.059L110.264 118.244C109.136 118.532 107.975 118.744 106.78 118.869C105.588 118.996 104.41 119.026 103.248 118.979L100.639 114.079C99.5466 113.862 98.4658 113.568 97.3976 113.153C97.3413 113.129 97.2925 113.099 97.2375 113.079L92.3115 115.794C90.2914 114.629 88.4514 113.179 86.8515 111.488L88.4814 106.142C87.7496 105.095 87.1254 103.992 86.6138 102.827L81.105 101.236C80.7823 100.026 80.5434 98.7754 80.4083 97.487C80.3082 96.5151 80.2732 95.5494 80.2869 94.5913L85.1853 91.9832C85.398 90.5935 85.752 89.2088 86.2836 87.8441C86.2922 87.8205 86.3036 87.7977 86.3151 87.7749C86.3237 87.7577 86.3324 87.7404 86.3399 87.7227L83.6155 82.7831C84.71 80.9318 86.0584 79.2331 87.6033 77.7383L92.7881 79.3169C94.1403 78.3062 95.6101 77.4719 97.1687 76.8414L98.671 71.6566C99.6854 71.4127 100.726 71.2275 101.793 71.1149C102.86 71.0024 103.915 70.9724 104.958 70.9986L107.428 75.6306C108.826 75.8407 110.216 76.1947 111.59 76.7301C111.786 76.8065 111.973 76.8943 112.16 76.982C112.282 77.0393 112.404 77.0965 112.528 77.1504ZM91.855 96.2912C92.5705 103.156 98.721 108.141 105.583 107.423C112.449 106.707 117.435 100.558 116.716 93.6944C116.001 86.8271 109.85 81.8424 102.988 82.5617C96.1229 83.2772 91.1357 89.4239 91.855 96.2912Z"/>
</mask>
<path d="M8.98277 63.5657L12.5388 61.7341L12.5385 61.7336L8.98277 63.5657ZM12.3864 69.0558L9.16166 71.4225L10.4976 73.2428L12.7464 73.0395L12.3864 69.0558ZM7.0089 59.0701L3.97412 56.4643L2.4373 58.2541L3.26003 60.4651L7.0089 59.0701ZM13.1332 51.9376L16.1679 54.5434L17.4729 53.0236L17.0376 51.0683L13.1332 51.9376ZM12.3288 44.6191L16.3155 44.9445L16.3155 44.9445L12.3288 44.6191ZM12.3351 44.5025H16.3351V42.63L14.8972 41.4307L12.3351 44.5025ZM5 38.3845L1.0527 37.7373L0.682973 39.9925L2.43792 41.4562L5 38.3845ZM8.18972 27.9635L7.88614 23.975L5.53599 24.1539L4.55367 26.2964L8.18972 27.9635ZM17.3436 27.2667L17.6472 31.2552L19.6668 31.1015L20.7382 29.3825L17.3436 27.2667ZM22.7423 20.6646L25.487 23.5744L26.9008 22.2408L26.7262 20.3052L22.7423 20.6646ZM21.9205 11.5558L19.6426 8.26775L17.7273 9.59463L17.9367 11.9152L21.9205 11.5558ZM26.5175 8.78013L24.6901 5.22191L24.6825 5.22583L26.5175 8.78013ZM31.4434 6.65115L34.0495 3.61666L32.282 2.09866L30.0896 2.8872L31.4434 6.65115ZM38.1868 12.4427L35.5807 15.4772L37.1018 16.7836L39.0588 16.3465L38.1868 12.4427ZM46.6017 11.675L46.3288 15.6657H46.3288L46.6017 11.675ZM47.1731 11.7109L46.9664 15.7056L48.9637 15.8089L50.2448 14.2731L47.1731 11.7109ZM52.7707 5L53.5219 1.07117L51.208 0.628735L49.699 2.43785L52.7707 5ZM63.1066 8.45115L67.0952 8.14843L66.9222 5.86926L64.8708 4.86118L63.1066 8.45115ZM63.7683 17.1697L59.7798 17.4724L59.9273 19.4162L61.5491 20.4976L63.7683 17.1697ZM70.2541 22.8687L67.2551 25.5156L68.5957 27.0345L70.6134 26.8525L70.2541 22.8687ZM78.7838 22.0994L82.0957 19.8564L80.7733 17.9037L78.4245 18.1156L78.7838 22.0994ZM81.298 26.3173L77.7411 28.147L77.742 28.1489L81.298 26.3173ZM83.791 32.2752L86.8266 34.8801L88.2963 33.1674L87.5902 31.0237L83.791 32.2752ZM78.0183 39.0024L74.9827 36.3975L73.7545 37.8288L74.0773 39.687L78.0183 39.0024ZM78.489 45.9954L74.4979 45.7285V45.7286L78.489 45.9954ZM78.4548 46.5414L74.4606 46.3255L74.3524 48.3283L75.8926 49.613L78.4548 46.5414ZM85.167 52.1403L89.1032 52.8517L89.5173 50.5602L87.7292 49.0686L85.167 52.1403ZM81.4231 63.3105L81.7259 67.2991L83.9764 67.1282L84.9937 65.1136L81.4231 63.3105ZM72.3268 64.001L72.024 60.0125L70.1631 60.1537L69.0758 61.6706L72.3268 64.001ZM68.0563 68.8681L65.3196 65.9509L63.8969 67.2856L64.0726 69.2284L68.0563 68.8681ZM68.8794 77.9707L71.2104 81.2214L73.0691 79.8885L72.8632 77.6105L68.8794 77.9707ZM63.7646 81.1016L65.5957 84.6579L65.5967 84.6574L63.7646 81.1016ZM58.2508 83.4483L55.6448 86.4829L57.3829 87.9756L59.5499 87.2314L58.2508 83.4483ZM51.1208 77.3253L53.7268 74.2907L52.2966 73.0625L50.439 73.3838L51.1208 77.3253ZM45.2861 77.8388L44.958 81.8253L44.9586 81.8253L45.2861 77.8388ZM45.1367 77.8306V73.8306H43.2646L42.0653 75.2681L45.1367 77.8306ZM39.0324 85.147L38.4293 89.1012L40.6589 89.4413L42.1038 87.7095L39.0324 85.147ZM27.7633 81.7083L23.7748 82.0117L23.9513 84.332L26.0556 85.3254L27.7633 81.7083ZM27.0453 72.268L31.0338 71.9647L30.8864 70.0262L29.2711 68.9445L27.0453 72.268ZM22.0606 68.1814L24.8856 65.3495L23.5622 64.0294L21.7006 64.1977L22.0606 68.1814ZM35.4449 26.1184L37.2763 29.6746L37.2771 29.6741L35.4449 26.1184ZM63.9647 35.246L60.4084 37.077L60.409 37.0782L63.9647 35.246ZM26.3173 54.6383L29.8735 52.8069L29.8731 52.8062L26.3173 54.6383ZM54.8371 63.7659L53.0055 60.2099L53.0053 60.21L54.8371 63.7659ZM117.042 74.6599L119.173 71.2746L117.176 70.0178L115.11 71.1575L117.042 74.6599ZM112.528 77.1504L110.935 80.8194L112.739 81.6026L114.46 80.6528L112.528 77.1504ZM121.987 78.774L125.814 79.9382L126.479 77.7533L124.935 76.0703L121.987 78.774ZM120.485 83.7125L116.658 82.5483L116.09 84.4146L117.211 86.011L120.485 83.7125ZM122.829 88.2356L119.072 89.6073L119.768 91.5158L121.72 92.0789L122.829 88.2356ZM127.686 89.6366L131.585 88.7429L131.059 86.4462L128.795 85.7933L127.686 89.6366ZM128.164 92.4973L124.185 92.9065L124.186 92.919L128.164 92.4973ZM128.259 96.3075L130.14 99.8377L132.132 98.7766L132.253 96.5231L128.259 96.3075ZM123.643 98.7667L121.762 95.2365L120.096 96.1241L119.723 97.9745L123.643 98.7667ZM122.708 102.035L126.426 103.509L126.433 103.492L126.439 103.476L122.708 102.035ZM122.423 102.674L126.04 104.382L126.04 104.382L122.423 102.674ZM122.267 103.008L118.62 101.367L117.799 103.19L118.765 104.941L122.267 103.008ZM124.76 107.527L128.168 109.621L129.389 107.635L128.263 105.594L124.76 107.527ZM120.305 112.868L119.139 116.694L121.296 117.351L122.974 115.847L120.305 112.868ZM115.155 111.299L116.32 107.473L114.54 106.93L112.979 107.943L115.155 111.299ZM111.76 113.059L110.272 109.346L108.458 110.073L107.917 111.95L111.76 113.059ZM110.264 118.244L111.252 122.12L113.472 121.554L114.107 119.353L110.264 118.244ZM106.78 118.869L106.364 114.891L106.359 114.892L106.78 118.869ZM103.248 118.979L99.7171 120.859L100.796 122.885L103.089 122.976L103.248 118.979ZM100.639 114.079L104.169 112.199L103.278 110.524L101.416 110.155L100.639 114.079ZM97.3976 113.153L95.8418 116.838L95.8947 116.86L95.9482 116.881L97.3976 113.153ZM97.2375 113.079L98.6043 109.32L96.8976 108.699L95.307 109.576L97.2375 113.079ZM92.3115 115.794L90.3138 119.259L92.2672 120.385L94.242 119.297L92.3115 115.794ZM86.8515 111.488L83.0254 110.322L82.3469 112.547L83.9457 114.237L86.8515 111.488ZM88.4814 106.142L92.3075 107.308L92.8753 105.446L91.76 103.85L88.4814 106.142ZM86.6138 102.827L90.276 101.218L89.5228 99.5037L87.7238 98.9841L86.6138 102.827ZM81.105 101.236L77.2402 102.267L77.823 104.451L79.9951 105.079L81.105 101.236ZM80.4083 97.487L76.4293 97.8967L76.4301 97.9042L80.4083 97.487ZM80.2869 94.5913L78.4071 91.0605L76.3213 92.1711L76.2873 94.5338L80.2869 94.5913ZM85.1853 91.9832L87.0652 95.5139L88.8359 94.5712L89.1393 92.5882L85.1853 91.9832ZM86.2836 87.8441L90.0108 89.296L90.0272 89.2539L90.0426 89.2114L86.2836 87.8441ZM86.3151 87.7749L89.8895 89.5704L89.8896 89.5701L86.3151 87.7749ZM86.3399 87.7227L90.0226 89.284L90.7816 87.4937L89.8425 85.7909L86.3399 87.7227ZM83.6155 82.7831L80.1723 80.7474L79.0095 82.7141L80.1129 84.7148L83.6155 82.7831ZM87.6033 77.7383L88.7683 73.9117L86.5147 73.2256L84.8218 74.8637L87.6033 77.7383ZM92.7881 79.3169L91.6231 83.1435L93.5606 83.7334L95.1829 82.5208L92.7881 79.3169ZM97.1687 76.8414L98.6686 80.5496L100.47 79.8209L101.011 77.9546L97.1687 76.8414ZM98.671 71.6566L97.7358 67.7674L95.4759 68.3108L94.829 70.5434L98.671 71.6566ZM104.958 70.9986L108.487 69.1162L107.39 67.0586L105.059 66.9999L104.958 70.9986ZM107.428 75.6306L103.899 77.513L104.845 79.2871L106.833 79.5861L107.428 75.6306ZM111.59 76.7301L113.043 73.0034L113.043 73.0032L111.59 76.7301ZM112.16 76.982L110.461 80.6032L110.461 80.6033L112.16 76.982ZM105.583 107.423L105.169 103.444L105.167 103.444L105.583 107.423ZM91.855 96.2912L95.8334 95.8765L95.8332 95.8745L91.855 96.2912ZM116.716 93.6944L112.738 94.1089L112.738 94.1113L116.716 93.6944ZM102.988 82.5617L103.402 86.5401L103.405 86.5399L102.988 82.5617ZM5.42676 65.3973C6.53111 67.5414 7.78635 69.5485 9.16166 71.4225L15.6111 66.6891C14.4747 65.1406 13.4433 63.4902 12.5388 61.7341L5.42676 65.3973ZM3.26003 60.4651C3.87244 62.1109 4.58443 63.7625 5.42702 65.3978L12.5385 61.7336C11.8601 60.4168 11.2736 59.0614 10.7578 57.6751L3.26003 60.4651ZM10.0984 49.3318L3.97412 56.4643L10.0437 61.6759L16.1679 54.5434L10.0984 49.3318ZM8.32259 44.7339C8.32259 47.5286 8.65443 50.2273 9.22875 52.8069L17.0376 51.0683C16.5787 49.0072 16.3226 46.8925 16.3226 44.7339H8.32259ZM8.34207 44.2936C8.34106 44.306 8.32259 44.5055 8.32259 44.7339H16.3226C16.3226 44.82 16.3192 44.8862 16.3171 44.9198C16.3154 44.9486 16.3134 44.9704 16.3155 44.9445L8.34207 44.2936ZM8.3351 44.5025C8.3351 44.4175 8.33846 44.352 8.34051 44.3183C8.34226 44.2896 8.34419 44.2677 8.34207 44.2937L16.3155 44.9445C16.3167 44.9306 16.3351 44.7313 16.3351 44.5025H8.3351ZM2.43792 41.4562L9.77302 47.5742L14.8972 41.4307L7.56208 35.3127L2.43792 41.4562ZM4.55367 26.2964C2.88793 29.9295 1.70198 33.777 1.0527 37.7373L8.9473 39.0316C9.47884 35.7894 10.4519 32.6271 11.8258 29.6306L4.55367 26.2964ZM17.04 23.2783L7.88614 23.975L8.49329 31.9519L17.6472 31.2552L17.04 23.2783ZM19.9976 17.7549C17.6728 19.9478 15.6437 22.4318 13.9489 25.151L20.7382 29.3825C22.073 27.2408 23.6665 25.2917 25.487 23.5744L19.9976 17.7549ZM17.9367 11.9152L18.7585 21.0241L26.7262 20.3052L25.9043 11.1964L17.9367 11.9152ZM24.6825 5.22583C22.8972 6.14753 21.2223 7.17342 19.6426 8.26775L24.1984 14.8439C25.5258 13.9243 26.9055 13.0814 28.3524 12.3344L24.6825 5.22583ZM30.0896 2.8872C28.282 3.53734 26.4735 4.30608 24.6901 5.22192L28.3448 12.3383C29.7912 11.5955 31.28 10.9608 32.7972 10.4151L30.0896 2.8872ZM40.7929 9.40819L34.0495 3.61666L28.8372 9.68563L35.5807 15.4772L40.7929 9.40819ZM45.4344 7.6221C42.6197 7.6221 39.9074 7.95982 37.3149 8.53886L39.0588 16.3465C41.137 15.8823 43.2631 15.6221 45.4344 15.6221V7.6221ZM46.8746 7.68435C46.5087 7.65933 45.9867 7.6221 45.4344 7.6221V15.6221C45.6689 15.6221 45.9203 15.6378 46.3288 15.6657L46.8746 7.68435ZM47.3797 7.71625C47.2272 7.70837 47.0701 7.69771 46.8746 7.68435L46.3288 15.6657C46.5134 15.6783 46.7367 15.6937 46.9664 15.7056L47.3797 7.71625ZM49.699 2.43785L44.1014 9.14877L50.2448 14.2731L55.8424 7.56215L49.699 2.43785ZM64.8708 4.86118C61.2722 3.09285 57.4537 1.82296 53.5219 1.07117L52.0195 8.92883C55.2577 9.54799 58.394 10.5922 61.3425 12.0411L64.8708 4.86118ZM67.7569 16.867L67.0952 8.14843L59.1181 8.75386L59.7798 17.4724L67.7569 16.867ZM73.2531 20.2218C71.1318 17.8183 68.7068 15.655 65.9875 13.8418L61.5491 20.4976C63.6508 21.8991 65.5588 23.5936 67.2551 25.5156L73.2531 20.2218ZM78.4245 18.1156L69.8948 18.8848L70.6134 26.8525L79.1431 26.0832L78.4245 18.1156ZM84.855 24.4876C84.0132 22.8512 83.0817 21.3123 82.0957 19.8564L75.4718 24.3424C76.3021 25.5683 77.0643 26.8314 77.7411 28.147L84.855 24.4876ZM87.5902 31.0237C86.863 28.816 85.9585 26.63 84.854 24.4857L77.742 28.1489C78.6465 29.9049 79.3906 31.7016 79.9918 33.5267L87.5902 31.0237ZM81.0538 41.6073L86.8266 34.8801L80.7555 29.6703L74.9827 36.3975L81.0538 41.6073ZM82.5449 44.7351C82.5449 42.5017 82.3137 40.3582 81.9592 38.3178L74.0773 39.687C74.3708 41.3766 74.5449 43.0533 74.5449 44.7351H82.5449ZM82.4801 46.2623C82.5066 45.8653 82.5449 45.315 82.5449 44.7351H74.5449C74.5449 45.0042 74.5272 45.2897 74.4979 45.7285L82.4801 46.2623ZM82.449 46.7572C82.4572 46.6046 82.4676 46.4483 82.4801 46.2622L74.4979 45.7286C74.486 45.906 74.4721 46.1134 74.4606 46.3255L82.449 46.7572ZM87.7292 49.0686L81.017 43.4697L75.8926 49.613L82.6048 55.2119L87.7292 49.0686ZM84.9937 65.1136C86.9457 61.2481 88.3326 57.1154 89.1032 52.8517L81.2307 51.4289C80.5979 54.9305 79.4581 58.3281 77.8525 61.5075L84.9937 65.1136ZM72.6296 67.9895L81.7259 67.2991L81.1204 59.322L72.024 60.0125L72.6296 67.9895ZM70.7931 71.7854C72.5569 70.1306 74.1597 68.3098 75.5778 66.3314L69.0758 61.6706C67.9672 63.2171 66.7104 64.6461 65.3196 65.9509L70.7931 71.7854ZM72.8632 77.6105L72.0401 68.5079L64.0726 69.2284L64.8957 78.3309L72.8632 77.6105ZM65.5967 84.6574C67.5815 83.6348 69.4515 82.4826 71.2104 81.2214L66.5485 74.7201C65.0975 75.7605 63.5602 76.7072 61.9325 77.5459L65.5967 84.6574ZM59.5499 87.2314C61.5889 86.5312 63.6112 85.6797 65.5957 84.6579L61.9335 77.5454C60.308 78.3824 58.6427 79.0844 56.9516 79.6651L59.5499 87.2314ZM48.5148 80.3599L55.6448 86.4829L60.8568 80.4137L53.7268 74.2907L48.5148 80.3599ZM45.4356 81.8469C47.6548 81.8469 49.779 81.6168 51.8026 81.2667L50.439 73.3838C48.76 73.6742 47.1017 73.8469 45.4356 73.8469V81.8469ZM44.9586 81.8253C44.9827 81.8273 45.1943 81.8469 45.4356 81.8469V73.8469C45.5158 73.8469 45.5765 73.8501 45.6051 73.8518C45.6286 73.8533 45.6454 73.8548 45.6136 73.8522L44.9586 81.8253ZM45.1367 81.8306C45.0564 81.8306 44.9957 81.8274 44.967 81.8257C44.9433 81.8242 44.9266 81.8227 44.958 81.8253L45.6142 73.8522C45.5896 73.8502 45.3781 73.8306 45.1367 73.8306V81.8306ZM42.1038 87.7095L48.208 80.3932L42.0653 75.2681L35.961 82.5844L42.1038 87.7095ZM26.0556 85.3254C29.9746 87.1758 34.1431 88.4475 38.4293 89.1012L39.6355 81.1927C36.1138 80.6556 32.6895 79.6107 29.4711 78.0912L26.0556 85.3254ZM23.0568 72.5714L23.7748 82.0117L31.7518 81.405L31.0338 71.9647L23.0568 72.5714ZM19.2357 71.0133C20.9448 72.7182 22.8157 74.2496 24.8196 75.5916L29.2711 68.9445C27.6924 67.8872 26.2236 66.6842 24.8856 65.3495L19.2357 71.0133ZM12.7464 73.0395L22.4207 72.1652L21.7006 64.1977L12.0263 65.072L12.7464 73.0395ZM37.2771 29.6741C45.7081 25.3298 56.0664 28.6436 60.4084 37.077L67.5211 33.415C61.1556 21.0515 45.9712 16.1946 33.6127 22.5627L37.2771 29.6741ZM29.8731 52.8062C25.5289 44.3745 28.8444 34.0168 37.2763 29.6746L33.6136 22.5623C21.2534 28.9275 16.3933 44.1101 22.7615 56.4703L29.8731 52.8062ZM53.0053 60.21C44.5743 64.5533 34.2155 61.2384 29.8735 52.8069L22.7612 56.4696C29.1266 68.8301 44.3105 73.6884 56.669 67.3217L53.0053 60.21ZM60.409 37.0782C64.7529 45.5084 61.4379 55.8663 53.0055 60.2099L56.6688 67.3218C69.0283 60.9554 73.889 45.7731 67.5204 33.4138L60.409 37.0782ZM115.11 71.1575L110.596 73.648L114.46 80.6528L118.975 78.1623L115.11 71.1575ZM124.935 76.0703C123.233 74.2147 121.289 72.6064 119.173 71.2746L114.912 78.0452C116.441 79.0076 117.832 80.1611 119.039 81.4778L124.935 76.0703ZM124.312 84.8766L125.814 79.9382L118.16 77.6099L116.658 82.5483L124.312 84.8766ZM126.586 86.8639C125.889 84.9544 124.955 83.1181 123.758 81.4139L117.211 86.011C117.979 87.1038 118.598 88.3096 119.072 89.6073L126.586 86.8639ZM128.795 85.7933L123.938 84.3923L121.72 92.0789L126.578 93.4799L128.795 85.7933ZM132.143 92.0881C132.025 90.9377 131.832 89.8211 131.585 88.7429L123.787 90.5303C123.968 91.3183 124.103 92.1105 124.185 92.9065L132.143 92.0881ZM132.253 96.5231C132.332 95.0704 132.302 93.5836 132.142 92.0756L124.186 92.919C124.299 93.9828 124.321 95.0428 124.265 96.0918L132.253 96.5231ZM125.524 102.297L130.14 99.8377L126.378 92.7773L121.762 95.2365L125.524 102.297ZM126.439 103.476C126.951 102.15 127.307 100.83 127.564 99.5588L119.723 97.9745C119.537 98.8948 119.295 99.7686 118.976 100.595L126.439 103.476ZM126.04 104.382C126.131 104.19 126.284 103.867 126.426 103.509L118.989 100.562C118.956 100.644 118.913 100.74 118.806 100.966L126.04 104.382ZM125.915 104.65C125.948 104.576 125.985 104.498 126.04 104.382L118.806 100.965C118.756 101.071 118.688 101.215 118.62 101.367L125.915 104.65ZM128.263 105.594L125.77 101.076L118.765 104.941L121.258 109.459L128.263 105.594ZM122.974 115.847C124.998 114.033 126.748 111.931 128.168 109.621L121.353 105.432C120.334 107.09 119.079 108.595 117.635 109.889L122.974 115.847ZM113.989 115.126L119.139 116.694L121.47 109.041L116.32 107.473L113.989 115.126ZM113.248 116.772C114.674 116.2 116.039 115.493 117.331 114.655L112.979 107.943C112.122 108.499 111.217 108.967 110.272 109.346L113.248 116.772ZM114.107 119.353L115.603 114.168L107.917 111.95L106.421 117.135L114.107 119.353ZM107.197 122.848C108.592 122.702 109.944 122.453 111.252 122.12L109.276 114.368C108.327 114.61 107.358 114.787 106.364 114.891L107.197 122.848ZM103.089 122.976C104.427 123.03 105.801 122.996 107.202 122.847L106.359 114.892C105.376 114.996 104.393 115.022 103.407 114.983L103.089 122.976ZM97.1078 115.958L99.7171 120.859L106.779 117.1L104.169 112.199L97.1078 115.958ZM95.9482 116.881C97.2731 117.396 98.5846 117.749 99.861 118.002L101.416 110.155C100.509 109.975 99.6586 109.74 98.847 109.425L95.9482 116.881ZM95.8706 116.838C95.8158 116.818 95.7673 116.799 95.7259 116.782C95.6846 116.765 95.6495 116.749 95.6219 116.737C95.5945 116.724 95.5728 116.714 95.5591 116.708C95.5521 116.704 95.5466 116.701 95.543 116.7C95.5394 116.698 95.5372 116.697 95.537 116.697C95.5369 116.697 95.5371 116.697 95.5378 116.697C95.5385 116.697 95.5394 116.698 95.541 116.699C95.5435 116.7 95.5492 116.703 95.555 116.706C95.5668 116.712 95.5875 116.722 95.6123 116.734C95.6375 116.746 95.6702 116.762 95.7082 116.779C95.7464 116.797 95.7913 116.817 95.8418 116.838L98.9534 109.468C99.0249 109.498 99.0781 109.524 99.1008 109.535C99.1123 109.54 99.1198 109.544 99.1184 109.543C99.1177 109.543 99.1167 109.542 99.1127 109.54C99.1095 109.539 99.1036 109.536 99.0971 109.533C99.074 109.521 99.0113 109.49 98.9336 109.455C98.8529 109.418 98.7404 109.369 98.6043 109.32L95.8706 116.838ZM94.242 119.297L99.1679 116.582L95.307 109.576L90.3811 112.29L94.242 119.297ZM83.9457 114.237C85.8135 116.211 87.9598 117.902 90.3138 119.259L94.3093 112.328C92.6229 111.356 91.0892 110.147 89.7573 108.739L83.9457 114.237ZM84.6552 104.975L83.0254 110.322L90.6776 112.654L92.3075 107.308L84.6552 104.975ZM82.9516 104.436C83.5718 105.847 84.3259 107.179 85.2028 108.433L91.76 103.85C91.1733 103.011 90.6791 102.136 90.276 101.218L82.9516 104.436ZM79.9951 105.079L85.5039 106.67L87.7238 98.9841L82.215 97.393L79.9951 105.079ZM76.4301 97.9042C76.5882 99.4125 76.8671 100.869 77.2402 102.267L84.9698 100.205C84.6975 99.1839 84.4985 98.1384 84.3865 97.0699L76.4301 97.9042ZM76.2873 94.5338C76.2716 95.6279 76.3113 96.7508 76.4293 97.8967L84.3872 97.0774C84.3051 96.2794 84.2747 95.471 84.2865 94.6487L76.2873 94.5338ZM83.3055 88.4525L78.4071 91.0605L82.1668 98.122L87.0652 95.5139L83.3055 88.4525ZM82.5564 86.3922C81.9097 88.0523 81.4846 89.7234 81.2314 91.3782L89.1393 92.5882C89.3114 91.4636 89.5943 90.3652 90.0108 89.296L82.5564 86.3922ZM82.7407 85.9793C82.7393 85.9821 82.7074 86.045 82.6736 86.1175C82.6372 86.1955 82.5814 86.3204 82.5246 86.4767L90.0426 89.2114C89.9943 89.3442 89.9486 89.4459 89.9229 89.5009C89.8998 89.5504 89.8794 89.5905 89.8895 89.5704L82.7407 85.9793ZM82.6572 86.1614C82.6863 86.0927 82.7113 86.0398 82.725 86.0115C82.7371 85.9864 82.7473 85.9663 82.7406 85.9797L89.8896 89.5701C89.8915 89.5662 89.9104 89.5289 89.9309 89.4865C89.9529 89.4408 89.9859 89.3705 90.0226 89.284L82.6572 86.1614ZM80.1129 84.7148L82.8373 89.6545L89.8425 85.7909L87.1181 80.8513L80.1129 84.7148ZM84.8218 74.8637C83.0258 76.6015 81.453 78.5811 80.1723 80.7474L87.0587 84.8187C87.967 83.2825 89.0911 81.8647 90.3848 80.6129L84.8218 74.8637ZM93.9532 75.4903L88.7683 73.9117L86.4382 81.5649L91.6231 83.1435L93.9532 75.4903ZM95.6687 73.1333C93.7829 73.8961 92.0134 74.9021 90.3933 76.113L95.1829 82.5208C96.2672 81.7103 97.4373 81.0476 98.6686 80.5496L95.6687 73.1333ZM94.829 70.5434L93.3267 75.7282L101.011 77.9546L102.513 72.7698L94.829 70.5434ZM101.373 67.137C100.121 67.2692 98.9079 67.4856 97.7358 67.7674L99.6061 75.5457C100.463 75.3397 101.331 75.1859 102.213 75.0929L101.373 67.137ZM105.059 66.9999C103.871 66.97 102.64 67.0034 101.373 67.137L102.213 75.0929C103.08 75.0014 103.958 74.9747 104.857 74.9974L105.059 66.9999ZM110.958 73.7482L108.487 69.1162L101.428 72.881L103.899 77.513L110.958 73.7482ZM113.043 73.0032C111.371 72.3515 109.69 71.9257 108.023 71.6751L106.833 79.5861C107.961 79.7557 109.062 80.0379 110.137 80.457L113.043 73.0032ZM113.859 73.3608C113.691 73.2819 113.384 73.1363 113.043 73.0034L110.137 80.4568C110.188 80.4767 110.255 80.5068 110.461 80.6032L113.859 73.3608ZM114.121 73.4814C114.059 73.4544 113.99 73.4221 113.859 73.3607L110.461 80.6033C110.574 80.6565 110.749 80.7386 110.935 80.8194L114.121 73.4814ZM105.167 103.444C100.502 103.933 96.3198 100.543 95.8334 95.8765L87.8765 96.7059C88.8212 105.769 96.9403 112.349 106 111.401L105.167 103.444ZM112.738 94.1113C113.227 98.7762 109.837 102.958 105.169 103.444L105.998 111.401C115.061 110.457 121.644 102.34 120.694 93.2775L112.738 94.1113ZM103.405 86.5399C108.069 86.051 112.251 89.4398 112.738 94.1089L120.694 93.2799C119.75 84.2145 111.631 77.6338 102.571 78.5834L103.405 86.5399ZM95.8332 95.8745C95.3443 91.2061 98.7347 87.0266 103.402 86.5401L102.573 78.5832C93.5112 79.5277 86.9272 87.6417 87.8767 96.7079L95.8332 95.8745Z" fill="#32E3C3" mask="url(#path-1-outside-1)"/>
</svg>
