<svg width="123" height="129" viewBox="0 0 123 129" fill="none" xmlns="http://www.w3.org/2000/svg">
<path d="M120.259 100.271L120.262 100.264L120.265 100.256C120.725 99.1146 120.644 97.8762 120.061 96.8043L120.053 96.7898L120.045 96.7755C119.017 94.9581 116.816 94.138 114.831 94.5815L73.8664 103.338C74.4957 102.499 74.8782 101.47 74.8782 100.298C74.8782 97.0217 71.8869 94.8527 68.8646 94.8527H36.0898C33.8548 94.8527 31.6518 95.3859 29.7187 96.4083C29.7185 96.4084 29.7183 96.4085 29.7181 96.4086L14.5546 104.407H4H2V106.407V124.657V126.657H4H54.3018C57.6321 126.657 60.9865 126.006 64.0089 124.761L117.805 102.657C117.805 102.657 117.806 102.656 117.807 102.656C118.893 102.213 119.796 101.392 120.259 100.271Z" stroke="#428c8b" stroke-width="4"/>
<line y1="-2" x2="36.5358" y2="-2" transform="matrix(-1 -8.25387e-08 -9.25959e-08 1 111.561 20.1836)" stroke="#428c8b" stroke-width="4"/>
<line y1="-2" x2="34.4946" y2="-2" transform="matrix(-4.62979e-08 -1 -1 4.12694e-08 90.5067 34.8003)" stroke="#428c8b" stroke-width="4"/>
<line y1="-2" x2="54.494" y2="-2" transform="matrix(-1 -8.25387e-08 -9.25959e-08 1 88.6489 50.0015)" stroke="#428c8b" stroke-width="4"/>
<line y1="-2" x2="51.4496" y2="-2" transform="matrix(-4.62979e-08 -1 -1 4.12694e-08 58.3057 72.8018)" stroke="#428c8b" stroke-width="4"/>
<line y1="-2" x2="21.6738" y2="-2" transform="matrix(-1 -8.25387e-08 -9.25959e-08 1 40.9668 13.5586)" stroke="#428c8b" stroke-width="4"/>
<line y1="-2" x2="20.4629" y2="-2" transform="matrix(-4.62979e-08 -1 -1 4.12694e-08 27.238 21.0596)" stroke="#428c8b" stroke-width="4"/>
</svg>
