<svg width="80" height="103" viewBox="0 0 80 103" fill="none" xmlns="http://www.w3.org/2000/svg">
<path d="M56.3551 75.4289L56.2316 75.1089H55.8886H42.4898H42.139L42.0197 75.4388L38.3796 85.5H38.3755H38.3624H38.3493H38.3361H38.323H38.3098H38.2967H38.2835H38.2704H38.2573H38.2441H38.231H38.2178H38.2047H38.1915H38.1784H38.1653H38.1521H38.139H38.1258H38.1127H38.0995H38.0864H38.0732H38.0601H38.047H38.0338H38.0207H38.0075H37.9944H37.9812H37.9681H37.9549H37.9418H37.9287H37.9155H37.9024H37.8892H37.8761H37.8629H37.8498H37.8367H37.8235H37.8104H37.7972H37.7841H37.7709H37.7578H37.7446H37.7315H37.7184H37.7052H37.6921H37.6789H37.6658H37.6526H37.6395H37.6263H37.6132H37.6H37.5869H37.5738H37.5606H37.5475H37.5343H37.5212H37.508H37.4949H37.4817H37.4686H37.4555H37.4423H37.4292H37.416H37.4029H37.3897H37.3766H37.3634H37.3503H37.3371H37.324H37.3109H37.2977H37.2846H37.2714H37.2583H37.2451H37.232H37.2188H37.2057H37.1925H37.1794H37.1663H37.1531H37.14H37.1268H37.1137H37.1005H37.0874H37.0742H37.0611H37.0479H37.0348H37.0217H37.0085H36.9954H36.9822H36.9691H36.9559H36.9428H36.9296H36.9165H36.9033H36.8902H36.8771H36.8639H36.8508H36.8376H36.8245H36.8113H36.7982H36.785H36.7719H36.7587H36.7456H36.7324H36.7193H36.7062H36.693H36.6799H36.6667H36.6536H36.6404H36.6273H36.6141H36.601H36.5878H36.5747H36.5615H36.5484H36.5353H36.5221H36.509H36.4958H36.4827H36.4695H36.4564H36.4432H36.4301H36.4169H36.4038H36.3906H36.3775H36.3644H36.3512H36.3381H36.3249H36.3118H36.2986H36.2855H36.2723H36.2592H36.246H36.2329H36.2197H36.2066H36.1934H36.1803H36.1672H36.154H36.1409H36.1277H36.1146H36.1014H36.0883H36.0751H36.062H36.0488H36.0357H36.0225H36.0094H35.9962H35.9831H35.97H35.9568H35.9437H35.9305H35.9174H35.9042H35.8911H35.8779H35.8648H35.8516H35.8385H35.8253H35.8122H35.799H35.7859H35.7728H35.7596H35.7465H35.7333H35.7202H35.707H35.6939H35.6807H35.6676H35.6544H35.6413H35.6281H35.615H35.6018H35.5887H35.5755H35.5624H35.5493H35.5361H35.523H35.5098H35.4967H35.4835H35.4704H35.4572H35.4441H35.4309H35.4178H35.4046H35.3915H35.3783H35.3652H35.3521H35.3389H35.3258H35.3126H35.2995H35.2863H35.2732H35.26H35.2469H35.2337H35.2206H35.2074H35.1943H35.1811H35.168H35.1548H35.1417H35.1286H35.1154H35.1023H35.0891H35.076H35.0628H35.0497H35.0365H35.0234H35.0102H34.9971H34.9839H34.9708H34.9576H34.9445H34.9314H34.9182H34.9051H34.8919H34.8788H34.8656H34.8525H34.8393H34.8262H34.813H34.7999H34.7867H34.7736H34.7604H34.7473H34.7342H34.721H34.7079H34.6947H34.6816H34.6684H34.6553H34.6421H34.629H34.6158H34.6027H34.5895H34.5764H34.5632H34.5501H34.537H34.5238H34.5107H34.4975H34.4844H34.4712H34.4581H34.4449H34.4318H34.4186H34.4055H34.3923H34.3792H34.366H34.3529H34.3398H34.3266H34.3135H34.3003H34.2872H34.274H34.2609H34.2477H34.2346H34.2214H34.2083H34.1951H34.182H34.1689H34.1557H34.1426H34.1294H34.1163H34.1031H34.09H34.0768H34.0637H34.0505H34.0374H34.0242H34.0111H33.998H33.9848H33.9717H33.9585H33.9454H33.9322H33.9191H33.9059H33.8928H33.8796H33.8665H33.8533H33.8402H33.8271H33.8139H33.8008H33.7876H33.7745H33.7613H33.7482H33.735H33.7219H33.7087H33.6956H33.6825H33.6693H33.6562H33.643H33.6299H33.6167H33.6036H33.5904H33.5773H33.5641H33.551H33.5378H33.5247H33.5116H33.4984H33.4853H33.4721H33.459H33.4458H33.4327H33.4195H33.4064H33.3933H33.3801H33.367H33.3538H33.3407H33.3275H33.3144H33.3012H33.2881H33.2749H33.2618H33.2487H33.2355H33.2224H33.2092H33.1961H33.1829H33.1698H33.1566H33.1435H33.1303H33.1172H33.1041H33.0909H33.0778H33.0646H33.0515H33.0383H33.0252H33.012H32.9989H32.9858H32.9726H32.9595H32.9463H32.9332H32.92H32.9069H32.8937H32.8806H32.8675H32.8543H32.8412H32.828H32.8149H32.8017H32.7886H32.7754H32.7623H32.7492H32.736H32.7302L46.3055 50.5H46.3151H46.3272H46.3394H46.3515H46.3637H46.3758H46.3879H46.4001H46.4122H46.4243H46.4365H46.4486H46.4608H46.4729H46.485H46.4972H46.5093H46.5215H46.5336H46.5457H46.5579H46.57H46.5822H46.5943H46.6064H46.6186H46.6307H46.6429H46.655H46.6671H46.6793H46.6914H46.7036H46.7157H46.7278H46.74H46.7521H46.7643H46.7764H46.7885H46.8007H46.8128H46.825H46.8371H46.8492H46.8614H46.8735H46.8857H46.8978H46.9099H46.9221H46.9342H46.9464H46.9585H46.9707H46.9828H46.9949H47.0071H47.0192H47.0314H47.0435H47.0556H47.0678H47.0799H47.0921H47.1042H47.1164H47.1285H47.1406H47.1528H47.1649H47.1771H47.1892H47.2013H47.2135H47.2256H47.2378H47.2499H47.2621H47.2742H47.2863H47.2985H47.3106H47.3228H47.3349H47.3471H47.3592H47.3713H47.3835H47.3956H47.4078H47.4199H47.4321H47.4442H47.4563H47.4685H47.4806H47.4928H47.5049H47.5171H47.5292H47.5413H47.5535H47.5656H47.5778H47.5899H47.6021H47.6142H47.6263H47.6385H47.6506H47.6628H47.6749H47.6871H47.6992H47.7114H47.7235H47.7356H47.7478H47.7599H47.7721H47.7842H47.7964H47.8085H47.8206H47.8328H47.8449H47.8571H47.8692H47.8814H47.8935H47.9057H47.9178H47.9299H47.9421H47.9542H47.9664H47.9785H47.9907H48.0028H48.015H48.0271H48.0392H48.0514H48.0635H48.0757H48.0878H48.1H48.1121H48.1243H48.1364H48.1486H48.1607H48.1728H48.185H48.1971H48.2093H48.2214H48.2336H48.2457H48.2579H48.27H48.2821H48.2943H48.3064H48.3186H48.3307H48.3429H48.355H48.3672H48.3793H48.3914H48.4036H48.4157H48.4279H48.44H48.4522H48.4643H48.4765H48.4886H48.5008H48.5129H48.525H48.5372H48.5493H48.5615H48.5736H48.5858H48.5979H48.6101H48.6222H48.6344H48.6465H48.6586H48.6708H48.6829H48.6951H48.7072H48.7194H48.7315H48.7437H48.7558H48.768H48.7801H48.7922H48.8044H48.8165H48.8287H48.8408H48.853H48.8651H48.8773H48.8894H48.9016H48.9137H48.9258H48.938H48.9501H48.9623H48.9744H48.9866H48.9987H49.0109H49.023H49.0352H49.0473H49.0594H49.0716H49.0837H49.0959H49.108H49.1202H49.1323H49.1445H49.1566H49.1688H49.1809H49.1931H49.2052H49.2173H49.2295H49.2416H49.2538H49.2659H49.2781H49.2902H49.3024H49.3145H49.3267H49.3388H49.3509H49.3631H49.3752H49.3874H49.3995H49.4117H49.4238H49.436H49.4481H49.4603H49.4724H49.4845H49.4967H49.5088H49.521H49.5331H49.5453H49.5574H49.5696H49.5817H49.5939H49.606H49.6181H49.6303H49.6424H49.6546H49.6667H49.6789H49.691H49.7032H49.7153H49.7274H49.7396H49.7517H49.7639H49.776H49.7882H49.8003H49.8125H49.8246H49.8368H49.8489H49.861H49.8732H49.8853H49.8975H49.9096H49.9218H49.9339H49.9461H49.9582H49.9703H49.9825H49.9946H50.0068H50.0189H50.0311H50.0432H50.0554H50.0675H50.0797H50.0918H50.1039H50.1161H50.1282H50.1404H50.1525H50.1647H50.1768H50.189H50.2011H50.2132H50.2254H50.2375H50.2497H50.2618H50.274H50.2861H50.2983H50.3104H50.3225H50.3347H50.3468H50.359H50.3711H50.3833H50.3954H50.4075H50.4197H50.4318H50.444H50.4561H50.4683H50.4804H50.4926H50.5047H50.5168H50.529H50.5411H50.5533H50.5654H50.5776H50.5897H50.6018H50.614H50.6261H50.6383H50.6504H50.6626H50.6747H50.6868H50.699H50.7111H50.7233H50.7354H50.7476H50.7597H50.7718H50.784H50.7961H50.8083H50.8204H50.8326H50.8447H50.8568H50.869H50.8811H50.8933H50.9054H50.9176H50.9297H50.9418H50.954H50.9661H50.9783H50.9904H51.0026H51.0147H51.0268H51.039H51.0511H51.0633H51.0754H51.0875H51.0997H51.1118H51.124H51.1361H51.1483H51.1604H51.1725H51.1847H51.1968H51.209H51.2211H51.2332H51.2454H51.2575H51.2697H51.2818H51.2939H51.3061H51.3182H51.3304H51.3425H51.3547H51.3668H51.3789H51.3911H51.4032H51.4154H51.4275H51.4396H51.4518H51.4639H51.4761H51.4882H51.5003H51.5125H51.5246H51.5368H51.5489H51.561H51.5732H51.5853H51.5975H51.6096H51.6217H51.6339H51.646H51.6581H51.6703H51.6824H51.6946H51.7067H51.7188H51.731H51.7431H51.7553H51.7674H51.7795H51.7917H51.8038H51.816H51.8281H51.8402H51.8452L66.2535 85.5H66.2511H66.2373H66.2234H66.2095H66.1957H66.1818H66.1679H66.1541H66.1402H66.1263H66.1125H66.0986H66.0847H66.0709H66.057H66.0431H66.0293H66.0154H66.0015H65.9877H65.9738H65.9599H65.9461H65.9322H65.9183H65.9045H65.8906H65.8767H65.8629H65.849H65.8351H65.8213H65.8074H65.7935H65.7797H65.7658H65.7519H65.7381H65.7242H65.7103H65.6965H65.6826H65.6687H65.6549H65.641H65.6271H65.6133H65.5994H65.5855H65.5717H65.5578H65.5439H65.5301H65.5162H65.5023H65.4885H65.4746H65.4607H65.4469H65.433H65.4192H65.4053H65.3914H65.3776H65.3637H65.3498H65.336H65.3221H65.3082H65.2944H65.2805H65.2666H65.2528H65.2389H65.225H65.2112H65.1973H65.1834H65.1696H65.1557H65.1418H65.128H65.1141H65.1002H65.0864H65.0725H65.0586H65.0448H65.0309H65.017H65.0032H64.9893H64.9754H64.9616H64.9477H64.9338H64.92H64.9061H64.8923H64.8784H64.8645H64.8507H64.8368H64.8229H64.8091H64.7952H64.7813H64.7675H64.7536H64.7397H64.7259H64.712H64.6981H64.6843H64.6704H64.6565H64.6427H64.6288H64.6149H64.6011H64.5872H64.5733H64.5595H64.5456H64.5317H64.5179H64.504H64.4901H64.4763H64.4624H64.4486H64.4347H64.4208H64.407H64.3931H64.3792H64.3654H64.3515H64.3376H64.3238H64.3099H64.296H64.2822H64.2683H64.2544H64.2406H64.2267H64.2128H64.199H64.1851H64.1712H64.1574H64.1435H64.1296H64.1158H64.1019H64.088H64.0742H64.0603H64.0464H64.0326H64.0187H64.0048H63.991H63.9771H63.9633H63.9494H63.9355H63.9217H63.9078H63.8939H63.8801H63.8662H63.8523H63.8385H63.8246H63.8107H63.7969H63.783H63.7691H63.7553H63.7414H63.7275H63.7137H63.6998H63.6859H63.6721H63.6582H63.6443H63.6305H63.6166H63.6027H63.5889H63.575H63.5611H63.5473H63.5334H63.5195H63.5057H63.4918H63.4779H63.4641H63.4502H63.4363H63.4225H63.4086H63.3947H63.3809H63.367H63.3531H63.3393H63.3254H63.3115H63.2977H63.2838H63.2699H63.2561H63.2422H63.2283H63.2145H63.2006H63.1867H63.1729H63.159H63.1451H63.1313H63.1174H63.1035H63.0897H63.0758H63.0619H63.0481H63.0342H63.0203H63.0065H62.9926H62.9787H62.9649H62.951H62.9371H62.9233H62.9094H62.8955H62.8817H62.8678H62.8539H62.8401H62.8262H62.8123H62.7985H62.7846H62.7707H62.7569H62.743H62.7291H62.7153H62.7014H62.6875H62.6737H62.6598H62.6459H62.632H62.6182H62.6043H62.5904H62.5766H62.5627H62.5488H62.535H62.5211H62.5072H62.4934H62.4795H62.4656H62.4518H62.4379H62.424H62.4102H62.3963H62.3824H62.3686H62.3547H62.3408H62.3269H62.3131H62.2992H62.2853H62.2715H62.2576H62.2437H62.2299H62.216H62.2021H62.1883H62.1744H62.1605H62.1467H62.1328H62.1189H62.105H62.0912H62.0773H62.0634H62.0496H62.0357H62.0218H62.008H61.9941H61.9802H61.9664H61.9525H61.9386H61.9247H61.9109H61.897H61.8831H61.8693H61.8554H61.8415H61.8277H61.8138H61.7999H61.786H61.7722H61.7583H61.7444H61.7306H61.7167H61.7028H61.689H61.6751H61.6612H61.6473H61.6335H61.6196H61.6057H61.5919H61.578H61.5641H61.5502H61.5364H61.5225H61.5086H61.4948H61.4809H61.467H61.4531H61.4393H61.4254H61.4115H61.3977H61.3838H61.3699H61.3561H61.3422H61.3283H61.3144H61.3006H61.2867H61.2728H61.2589H61.2451H61.2312H61.2173H61.2035H61.1896H61.1757H61.1618H61.148H61.1341H61.1202H61.1064H61.0925H61.0786H61.0647H61.0509H61.037H61.0231H61.0092H60.9954H60.9815H60.9676H60.9538H60.9399H60.926H60.9121H60.8983H60.8844H60.8705H60.8566H60.8428H60.8289H60.815H60.8011H60.7873H60.7734H60.7595H60.7456H60.7318H60.7179H60.704H60.6902H60.6763H60.6624H60.6485H60.6347H60.6208H60.6069H60.593H60.5792H60.5653H60.5514H60.5375H60.5237H60.5098H60.4959H60.482H60.4682H60.4543H60.4404H60.4265H60.4127H60.3988H60.3849H60.371H60.3572H60.3433H60.3294H60.3155H60.3017H60.2878H60.2739H60.26H60.2461H60.2422L56.3551 75.4289ZM44.0092 70.0304L43.7447 70.7114H44.4752H53.7983H54.5274L54.2647 70.0312C53.9735 69.2774 53.6809 68.5245 53.3884 67.7719C52.046 64.318 50.7063 60.8711 49.5221 57.3754L49.0055 55.8504L48.5674 57.3998C47.5497 60.9991 46.1702 64.5154 44.7879 68.0388C44.5276 68.7022 44.2672 69.3659 44.0092 70.0304Z" fill="#32E3C3" stroke="white"/>
<path d="M31.4377 45.9436L31.0969 46.2879L31.4303 46.6394C34.4378 49.8095 37.7312 51.2717 41.8408 52.0535L41.0787 56.4171C35.7817 55.4076 31.5946 53.398 27.9045 49.3447L27.6256 49.0384L27.2728 49.2554C24.5858 50.9084 22.0061 51.746 18.9245 52.3224L18.1624 47.9615C20.4855 47.5275 22.4444 46.9516 24.6058 45.6926L25.0314 45.4447L24.7899 45.0154C22.4459 40.8479 21.5305 36.6005 21.3643 31.8474C22.3203 31.8229 23.2768 31.8001 24.2336 31.7774C24.7493 31.7651 25.265 31.7529 25.7808 31.7403C25.9091 35.3677 26.5075 38.6313 28.1809 41.9663L28.5127 42.6275L29.0025 42.0731C32.2252 38.4257 33.8729 33.6818 34.1745 28.9039L34.2081 28.3724H33.6755H17.5V23.8937H26.6837H27.1837V23.3937V20.5H32.8178V23.3937V23.8937H33.3178H42.5V28.3724H39.1009H38.6258L38.6016 28.8469C38.2768 35.2136 35.9367 41.3975 31.4377 45.9436Z" fill="#32E3C3" stroke="white"/>
<path d="M2.6875 2H60.9531L77.9688 19.0156V101H2.6875V2Z" stroke="#32E3C3" stroke-width="4"/>
<path d="M55.2812 2V24.6875H79" stroke="#32E3C3" stroke-width="4"/>
</svg>
