<svg width="123" height="108" viewBox="0 0 123 108" fill="none" xmlns="http://www.w3.org/2000/svg">
<path d="M55.3866 68.7172L55.1736 66.9575H53.4011H34.5792C41.9314 50.9732 54.8038 33.9453 66.6001 22.4625C66.0049 31.2889 66.0385 38.7863 66.2513 44.3332C66.3778 47.6325 66.5678 50.2436 66.727 52.036C66.8065 52.9323 66.8784 53.624 66.9309 54.095C66.9571 54.3304 66.9784 54.5107 66.9934 54.6338C67.0009 54.6953 67.0069 54.7425 67.011 54.7752L67.0159 54.8132L67.0173 54.824L67.0177 54.8273L67.0179 54.8284C67.018 54.8288 67.018 54.8292 69.0007 54.5669L67.018 54.8292L67.2479 56.5669H69.0007H87.7083C80.5769 70.7175 68.7276 88.5507 55.6999 101.169C56.4093 88.8086 56.5986 78.7312 55.3866 68.7172Z" stroke="#32817F" stroke-width="4"/>
<path d="M24.7563 2.0127H2V21.812" stroke="#32817F" stroke-width="4"/>
<path d="M2 2.0127C11.9592 11.9742 17.9944 17.3126 29.8649 26.2568" stroke="#32817F" stroke-width="4"/>
<path d="M97.6695 105.05L120.426 105.05L120.426 85.2505" stroke="#32817F" stroke-width="4"/>
<path d="M120.426 105.05C110.227 94.0666 104.209 88.5747 92.5609 80.8057" stroke="#32817F" stroke-width="4"/>
<path d="M120.426 21.812L120.426 2.0127L97.6695 2.01269" stroke="#32817F" stroke-width="4"/>
<path d="M120.426 2.0127C108.094 10.8573 101.975 16.1655 92.5609 26.2568" stroke="#32817F" stroke-width="4"/>
<path d="M2 85.2505L2 105.05L24.7563 105.05" stroke="#32817F" stroke-width="4"/>
<path d="M2 105.05C14.877 96.0719 21.1492 90.8056 29.8649 80.8057" stroke="#32817F" stroke-width="4"/>
</svg>
