<svg width="320" height="364" viewBox="0 0 320 364" fill="none" xmlns="http://www.w3.org/2000/svg">
<path d="M369.352 25.1826C326.234 8.82585 229.86 -2.84837 189.302 81.3087C148.745 165.466 57.9527 195.712 17.6266 200.315C-44.7925 205.094 -171.089 226.387 -176.922 273.328M390.02 74.1121C371.245 44.1372 294.369 23.7279 241.383 65.8996C194.877 102.913 157.475 192.796 -1.34736 212.744C-128.405 228.703 -170.207 269.158 -175.225 287.391M-171.44 362.817C-155.034 276.895 -25.2115 220.538 88.7395 217.012C202.691 213.486 278.947 187.969 323.83 130.852C334.544 117.909 360.561 94.5195 378.922 104.501" stroke="#D8D8D8" stroke-width="4" stroke-dasharray="2 9"/>
</svg>
