<svg width="320" height="373" viewBox="0 0 320 373" fill="none" xmlns="http://www.w3.org/2000/svg">
<path d="M-92.5472 22.826C-53.5338 13.2407 31.0701 13.2965 57.3793 90.2017C83.6885 167.107 159.087 202.76 193.498 210.973C247.006 221.66 354.059 253.318 354.207 294.449M-115.536 62.8872C-96.1633 38.9879 -27.5183 29.4539 13.9257 71.4256C50.3009 108.264 73.2823 189.779 208.618 223.696C316.886 250.83 348.832 290.144 351.272 306.409M340.125 371.116C334.897 295.227 228.452 232.933 130.227 217.909C32.0016 202.885 -31.3145 172.842 -64.188 118.821C-72.1071 106.524 -92.1772 83.5992 -109.105 90.2848" stroke="#D8D8D8" stroke-width="4" stroke-dasharray="2 9"/>
</svg>
