<svg width="145" height="92" viewBox="0 0 145 92" fill="none" xmlns="http://www.w3.org/2000/svg">
<path fill-rule="evenodd" clip-rule="evenodd" d="M34.814 7.87054C54.2838 0.508123 74.1186 -0.888198 94.4294 3.4277C88.3837 8.06095 83.068 13.5669 78.5774 19.8503C73.3887 27.1176 68.7711 35.1623 65.8514 43.6513L60.9324 25.277H29.7363V13.8684C29.7363 10.568 32.1482 8.87018 34.814 7.87054ZM105.172 6.23621C97.4284 11.0281 90.7639 17.2481 85.4323 24.7375C78.8472 33.9405 69.9136 49.7761 71.0878 62.216C84.0359 62.3271 97.0317 60.6293 110.107 57.1067C110.678 56.9481 111.233 56.7418 111.757 56.4879C108.409 55.4248 105.124 54.0761 101.887 52.3783C94.6515 48.6019 90.3037 45.714 83.7662 38.3833C85.1308 36.0191 86.432 34.115 87.9553 31.8619C93.9216 38.5579 99.0628 42.3819 105.537 45.7616C108.695 47.4118 111.916 48.6971 115.184 49.6808V13.8684C115.184 10.568 112.788 8.82258 110.107 7.87054C108.457 7.29932 106.806 6.74397 105.172 6.23621ZM61.9956 61.8352L54.4584 33.7184H29.7363V51.1248C29.7363 54.4252 32.1006 56.3768 34.814 57.1226C43.8428 59.582 52.9033 61.1529 61.9956 61.8352Z" fill="white"/>
<path fill-rule="evenodd" clip-rule="evenodd" d="M0 91.7768H2.68166V75.5128H0V91.7768ZM13.5987 91.7768L6.87076 84.9221C6.48993 84.5254 6.04563 84.1129 6.04563 83.383C6.04563 82.8276 6.39473 82.5262 6.71208 82.1771L12.8371 75.5128H9.53655L4.15736 81.6059C3.77654 82.0501 3.47505 82.7959 3.47505 83.4147C3.47505 83.9701 3.66546 84.7793 4.36365 85.5251L10.203 91.7768H13.5987Z" fill="white"/>
<path fill-rule="evenodd" clip-rule="evenodd" d="M24.9599 91.7768V89.3332H20.152C18.47 89.3332 17.1688 89.0476 16.4389 87.7782C16.1533 87.2705 15.7725 86.2708 15.7725 83.8273C15.7725 81.4155 16.1374 80.1778 16.5659 79.4638C17.3751 78.0675 18.7239 77.9564 20.2948 77.9564H24.7378V75.5128H19.0254C18.0098 75.5128 15.8042 75.6556 14.3761 77.5597C13.1702 79.1623 12.9956 81.5583 12.9956 83.8749C12.9956 85.6679 13.0908 88.1432 14.4396 89.8727C15.7566 91.5705 17.6131 91.7768 18.9619 91.7768H24.9599Z" fill="white"/>
<path fill-rule="evenodd" clip-rule="evenodd" d="M25.5947 91.7768H28.4192L29.8632 87.6671H36.7022L38.162 91.7768H40.9865L35.6232 77.163C35.1154 75.7984 34.5124 75.3224 33.2906 75.3224C32.0053 75.3224 31.4658 75.7825 30.958 77.163L25.5947 91.7768ZM32.878 78.8608C32.9574 78.6228 33.1002 78.1944 33.2906 78.1944C33.481 78.1944 33.608 78.6387 33.7032 78.8608L36.0199 85.4775H30.5614L32.878 78.8608Z" fill="white"/>
<path fill-rule="evenodd" clip-rule="evenodd" d="M54.3471 75.5128H51.6654V82.1771H44.271V75.5128H41.5894V91.7768H44.271V84.6206H51.6654V91.7768H54.3471V75.5128Z" fill="white"/>
<path fill-rule="evenodd" clip-rule="evenodd" d="M64.0901 91.7768V77.9564H69.6597V75.5128H55.8706V77.9564H61.4085V91.7768H64.0901Z" fill="white"/>
<path fill-rule="evenodd" clip-rule="evenodd" d="M82.0684 91.7768V89.3332H74.4677C74.0393 89.3332 73.7219 89.3174 73.5474 89.1269C73.4204 89.0159 73.3411 88.762 73.3411 88.4923V84.6841H81.7669V82.2405H73.3411V78.9719C73.3411 78.7339 73.3411 78.4165 73.5632 78.1785C73.7695 77.9722 74.0551 77.9405 74.2931 77.9405H81.9732V75.4969H72.8492C72.2938 75.4969 71.6115 75.5445 71.1355 76.1316C70.834 76.5283 70.6436 77.1789 70.6436 77.8294V89.3491C70.6436 89.9838 70.6912 90.7137 71.1672 91.2532C71.6274 91.7609 72.1827 91.7609 72.7857 91.7609H82.0684V91.7768Z" fill="white"/>
<path fill-rule="evenodd" clip-rule="evenodd" d="M86.5747 91.7768V86.017H93.2392C94.0643 86.017 94.8895 85.7155 95.4131 85.2236C96.5239 84.1764 96.6508 82.0819 96.6508 80.7649C96.6508 79.4003 96.5556 77.5597 95.5718 76.4966C94.6991 75.5287 93.4931 75.5287 92.7473 75.5287H85.9876C85.4957 75.5287 84.8451 75.6239 84.385 76.1634C83.8931 76.7187 83.8931 77.3693 83.8931 77.9722V91.7927H86.5747V91.7768ZM86.5747 83.5734V78.9243C86.5747 78.6387 86.5747 78.3689 86.7651 78.1627C86.9714 77.9246 87.2094 77.9564 87.3999 77.9564H91.7318C92.1761 77.9564 92.9377 77.9722 93.3979 78.5117C93.8422 79.0512 93.9057 80.0191 93.9057 80.749C93.9057 81.3678 93.8581 82.4151 93.4455 82.9863C92.9853 83.5893 92.2872 83.5893 91.7 83.5893H86.5747V83.5734Z" fill="white"/>
<path fill-rule="evenodd" clip-rule="evenodd" d="M98.6819 75.5128H101.284V87.4926C101.284 87.6037 101.284 87.8893 101.506 87.8893C101.697 87.8893 101.729 87.6513 101.824 87.4926L107.853 76.5918C108.234 75.8936 108.853 75.3224 110.107 75.3224C111.44 75.3224 112.281 76.1316 112.281 77.5279V91.7609H109.678V79.8287C109.678 79.4955 109.488 79.3685 109.393 79.3685C109.345 79.3685 109.266 79.4161 109.075 79.7652L103.077 90.5867C102.443 91.7292 101.633 91.9513 100.776 91.9513C99.6181 91.9513 98.666 91.3007 98.666 89.6505V75.5128H98.6819Z" fill="white"/>
<path fill-rule="evenodd" clip-rule="evenodd" d="M128.37 75.5128H125.689V82.1771H118.294V75.5128H115.613V91.7768H118.294V84.6206H125.689V91.7768H128.37V75.5128Z" fill="white"/>
<path fill-rule="evenodd" clip-rule="evenodd" d="M131.306 75.5128H133.908V87.4926C133.908 87.6037 133.908 87.8893 134.13 87.8893C134.321 87.8893 134.353 87.6513 134.448 87.4926L140.477 76.5918C140.858 75.8936 141.477 75.3224 142.731 75.3224C144.064 75.3224 144.905 76.1316 144.905 77.5279V91.7609H142.302V79.8287C142.302 79.4955 142.112 79.3685 142.017 79.3685C141.969 79.3685 141.89 79.4161 141.699 79.7652L135.701 90.5867C135.067 91.7292 134.257 91.9513 133.4 91.9513C132.242 91.9513 131.29 91.3007 131.29 89.6505V75.5128H131.306Z" fill="white"/>
</svg>
