<svg width="101" height="76" viewBox="0 0 101 76" fill="none" xmlns="http://www.w3.org/2000/svg">
<path fill-rule="evenodd" clip-rule="evenodd" d="M5.98757 8.89995C28.9461 -0.0829865 52.3351 -1.78665 76.2853 3.47921C69.1564 9.13226 62.8882 15.8501 57.5929 23.5166C51.4744 32.3833 46.0294 42.1987 42.5866 52.5562L36.7861 30.1376H0V16.2179C0 12.1911 2.8441 10.1196 5.98757 8.89995ZM88.9528 6.90589C79.8218 12.7525 71.9631 20.3416 65.6761 29.4794C57.911 40.708 47.3766 60.0291 48.7612 75.2072C64.0295 75.3427 79.354 73.2712 94.772 68.9733C95.4456 68.7797 96.1004 68.528 96.7179 68.2183C92.7699 66.9212 88.8967 65.2756 85.0796 63.2041C76.5473 58.5965 71.4204 55.073 63.7115 46.1288C65.3206 43.2442 66.8549 40.921 68.6512 38.1719C75.6866 46.3417 81.749 51.0074 89.3832 55.1311C93.1067 57.1445 96.905 58.7126 100.76 59.9129V16.2179C100.76 12.1911 97.9341 10.0615 94.772 8.89995C92.826 8.20299 90.88 7.5254 88.9528 6.90589ZM38.0398 74.7425L29.152 40.437H0V61.6747C0 65.7015 2.78796 68.0828 5.98757 68.9927C16.6342 71.9934 27.3183 73.91 38.0398 74.7425Z" fill="black"/>
</svg>
