<svg width="121" height="112" viewBox="0 0 121 112" fill="none" xmlns="http://www.w3.org/2000/svg">
<rect x="2" y="10.6172" width="79.4444" height="98.3834" stroke="#32807E" stroke-width="4"/>
<path d="M98.0555 10.6172H111.778V93.9199L104.917 106.846L98.0555 93.9199V10.6172Z" stroke="#32807E" stroke-width="4"/>
<path d="M98.7778 42.2146H111.417M111.417 23.9023H117.556C118.037 23.9023 119 24.1896 119 25.3386C119 26.4876 119 46.4036 119 56.218M98.7778 92.4834H111.417" stroke="#32807E" stroke-width="4"/>
<rect x="20.0555" y="2" width="43.3333" height="19.3894" fill="white" stroke="#32807E" stroke-width="4"/>
<path d="M16.0834 39.702L22.2223 45.806L31.9722 36.1113" stroke="#32807E" stroke-width="4"/>
<path d="M16.0834 63.0408L22.2223 69.1449L31.9722 59.4502" stroke="#32807E" stroke-width="4"/>
<path d="M16.0834 86.0203L22.2223 92.1244L31.9722 82.4297" stroke="#32807E" stroke-width="4"/>
<path d="M37.7501 42.2148H66.639" stroke="#32807E" stroke-width="4"/>
<path d="M37.7501 65.5537H66.639" stroke="#32807E" stroke-width="4"/>
<path d="M37.7501 88.5332H66.639" stroke="#32807E" stroke-width="4"/>
</svg>
