<svg width="96" height="112" viewBox="0 0 96 112" fill="none" xmlns="http://www.w3.org/2000/svg">
<path d="M55.9312 78.2756H53.9312V80.2756H55.9312V78.2756ZM55.9312 2.1377V0.137695H53.9312V2.1377H55.9312ZM57.9312 78.2756V2.1377H53.9312V78.2756H57.9312ZM55.9312 4.1377C75.8515 4.1377 92.0001 20.2863 92.0001 40.2067H96.0001C96.0001 18.0772 78.0606 0.137695 55.9312 0.137695V4.1377ZM92.0001 40.2067C92.0001 60.127 75.8515 76.2756 55.9312 76.2756V80.2756C78.0606 80.2756 96.0001 62.3361 96.0001 40.2067H92.0001Z" fill="#32E3C3"/>
<path d="M40.0689 33.8621L42.0689 33.8621L42.0689 31.8621L40.0689 31.8621L40.0689 33.8621ZM40.0688 110L40.0688 112L42.0688 112L42.0688 110L40.0688 110ZM3.99988 71.931C3.99988 52.0107 20.1485 35.8621 40.0689 35.8621L40.0689 31.8621C17.9394 31.8621 -0.000116808 49.8016 -0.000118742 71.931L3.99988 71.931ZM40.0688 108C20.1485 108 3.99988 91.8514 3.99988 71.931L-0.000118742 71.931C-0.000120677 94.0605 17.9394 112 40.0688 112L40.0688 108ZM40.0688 108C40.0688 108 40.0688 108 40.0688 108C40.0688 108 40.0688 108 40.0688 108C40.0688 108 40.0688 108 40.0688 108C40.0688 108 40.0688 108 40.0688 108C40.0688 108 40.0688 108 40.0688 108C40.0688 108 40.0688 108 40.0688 108C40.0688 108 40.0688 108 40.0688 108C40.0688 108 40.0688 108 40.0688 108C40.0688 108 40.0688 108 40.0688 108C40.0688 108 40.0688 108 40.0688 108C40.0688 108 40.0688 108 40.0688 108C40.0688 108 40.0688 108 40.0688 108C40.0688 108 40.0688 108 40.0688 108C40.0688 108 40.0688 108 40.0688 108C40.0688 108 40.0688 108 40.0688 108C40.0688 108 40.0688 108 40.0688 108C40.0688 108 40.0688 108 40.0688 108C40.0688 108 40.0688 108 40.0688 108C40.0688 108 40.0688 108 40.0688 108C40.0688 108 40.0688 108 40.0688 108C40.0688 108 40.0688 108 40.0688 108C40.0688 108 40.0688 108 40.0688 108C40.0688 108 40.0688 108 40.0688 108C40.0688 108 40.0688 108 40.0688 108C40.0688 108 40.0688 108 40.0688 108C40.0688 108 40.0688 108 40.0688 108C40.0688 108 40.0688 108 40.0688 108C40.0688 108 40.0688 108 40.0688 108C40.0688 108 40.0688 108 40.0688 108C40.0688 108 40.0688 108 40.0688 108C40.0688 108 40.0688 108 40.0688 108C40.0688 108 40.0688 108 40.0688 108C40.0688 108 40.0688 108 40.0688 108C40.0688 108 40.0688 108 40.0688 108C40.0688 108 40.0688 108 40.0688 108C40.0688 108 40.0688 108 40.0688 108C40.0688 108 40.0688 108 40.0688 108C40.0688 108 40.0688 108 40.0688 108C40.0688 108 40.0688 108 40.0688 108C40.0688 108 40.0688 108 40.0688 108C40.0688 108 40.0688 108 40.0688 108C40.0688 108 40.0688 108 40.0688 108C40.0688 108 40.0688 108 40.0688 108C40.0688 108 40.0688 108 40.0688 108C40.0688 108 40.0688 108 40.0688 108C40.0688 108 40.0688 108 40.0688 108C40.0688 108 40.0688 108 40.0688 108C40.0688 108 40.0688 108 40.0688 108C40.0688 108 40.0688 108 40.0688 108C40.0688 108 40.0688 108 40.0688 108C40.0688 108 40.0688 108 40.0688 108C40.0688 108 40.0688 108 40.0688 108C40.0688 108 40.0688 108 40.0688 108C40.0688 108 40.0688 108 40.0688 108C40.0688 108 40.0688 108 40.0688 108C40.0688 108 40.0688 108 40.0688 108C40.0688 108 40.0688 108 40.0688 108C40.0688 108 40.0688 108 40.0688 108C40.0688 108 40.0688 108 40.0688 108C40.0688 108 40.0688 108 40.0688 108C40.0688 108 40.0688 108 40.0688 108C40.0688 108 40.0688 108 40.0688 108C40.0688 108 40.0688 108 40.0688 108C40.0688 108 40.0688 108 40.0688 108C40.0688 108 40.0688 108 40.0688 108C40.0688 108 40.0688 108 40.0688 108C40.0688 108 40.0688 108 40.0688 108C40.0688 108 40.0688 108 40.0688 108C40.0688 108 40.0688 108 40.0688 108C40.0688 108 40.0688 108 40.0688 108C40.0688 108 40.0688 108 40.0688 108C40.0688 108 40.0688 108 40.0688 108C40.0688 108 40.0688 108 40.0688 108C40.0688 108 40.0688 108 40.0688 108C40.0688 108 40.0688 108 40.0688 108C40.0688 108 40.0688 108 40.0688 108C40.0688 108 40.0688 108 40.0688 108C40.0688 108 40.0688 108 40.0688 108C40.0688 108 40.0688 108 40.0688 108C40.0688 108 40.0688 108 40.0688 108C40.0688 108 40.0688 108 40.0688 108C40.0688 108 40.0688 108 40.0688 108C40.0688 108 40.0688 108 40.0688 108C40.0688 108 40.0688 108 40.0688 108C40.0688 108 40.0688 108 40.0688 108C40.0688 108 40.0688 108 40.0688 108C40.0688 108 40.0688 108 40.0688 108C40.0688 108 40.0688 108 40.0688 108C40.0688 108 40.0688 108 40.0688 108C40.0688 108 40.0688 108 40.0688 108C40.0688 108 40.0688 108 40.0688 108C40.0688 108 40.0688 108 40.0688 108C40.0688 108 40.0688 108 40.0688 108C40.0688 108 40.0688 108 40.0688 108C40.0688 108 40.0688 108 40.0688 108C40.0688 108 40.0688 108 40.0688 108C40.0688 108 40.0688 108 40.0688 108C40.0688 108 40.0688 108 40.0688 108C40.0688 108 40.0688 108 40.0688 108C40.0688 108 40.0688 108 40.0688 108C40.0688 108 40.0688 108 40.0688 108C40.0688 108 40.0688 108 40.0688 108C40.0688 108 40.0688 108 40.0688 108C40.0688 108 40.0688 108 40.0688 108C40.0688 108 40.0688 108 40.0688 108C40.0688 108 40.0688 108 40.0688 108C40.0688 108 40.0688 108 40.0688 108C40.0688 108 40.0688 108 40.0688 108C40.0688 108 40.0688 108 40.0688 108C40.0688 108 40.0688 108 40.0688 108C40.0688 108 40.0688 108 40.0688 108C40.0688 108 40.0688 108 40.0688 108C40.0688 108 40.0688 108 40.0688 108C40.0688 108 40.0688 108 40.0688 108C40.0688 108 40.0688 108 40.0688 108C40.0688 108 40.0688 108 40.0688 108C40.0688 108 40.0688 108 40.0688 108C40.0688 108 40.0688 108 40.0688 108C40.0688 108 40.0688 108 40.0688 108C40.0688 108 40.0688 108 40.0688 108C40.0688 108 40.0688 108 40.0688 108C40.0688 108 40.0688 108 40.0688 108C40.0688 108 40.0688 108 40.0688 108C40.0688 108 40.0688 108 40.0688 108C40.0688 108 40.0688 108 40.0688 108C40.0688 108 40.0688 108 40.0688 108C40.0688 108 40.0688 108 40.0688 108C40.0688 108 40.0688 108 40.0688 108C40.0688 108 40.0688 108 40.0688 108C40.0688 108 40.0688 108 40.0688 108C40.0688 108 40.0688 108 40.0688 108C40.0688 108 40.0688 108 40.0688 108C40.0688 108 40.0688 108 40.0688 108C40.0688 108 40.0688 108 40.0688 108C40.0688 108 40.0688 108 40.0688 108C40.0688 108 40.0688 108 40.0688 108C40.0688 108 40.0688 108 40.0688 108C40.0688 108 40.0688 108 40.0688 108C40.0688 108 40.0688 108 40.0688 108C40.0688 108 40.0688 108 40.0688 108C40.0688 108 40.0688 108 40.0688 108C40.0688 108 40.0688 108 40.0688 108C40.0688 108 40.0688 108 40.0688 108C40.0688 108 40.0688 108 40.0688 108C40.0688 108 40.0688 108 40.0688 108C40.0688 108 40.0688 108 40.0688 108C40.0688 108 40.0688 108 40.0688 108C40.0688 108 40.0688 108 40.0688 108C40.0688 108 40.0688 108 40.0688 108C40.0688 108 40.0688 108 40.0688 108C40.0688 108 40.0688 108 40.0688 108C40.0688 108 40.0688 108 40.0688 108C40.0688 108 40.0688 108 40.0688 108C40.0688 108 40.0688 108 40.0688 108C40.0688 108 40.0688 108 40.0688 108C40.0688 108 40.0688 108 40.0688 108C40.0688 108 40.0688 108 40.0688 108C40.0688 108 40.0688 108 40.0688 108C40.0688 108 40.0688 108 40.0688 108C40.0688 108 40.0688 108 40.0688 108C40.0688 108 40.0688 108 40.0688 108C40.0688 108 40.0688 108 40.0688 108C40.0688 108 40.0688 108 40.0688 108C40.0688 108 40.0688 108 40.0688 108C40.0688 108 40.0688 108 40.0688 108C40.0688 108 40.0688 108 40.0688 108C40.0688 108 40.0688 108 40.0688 108C40.0688 108 40.0688 108 40.0688 108C40.0688 108 40.0688 108 40.0688 108C40.0688 108 40.0688 108 40.0688 108C40.0688 108 40.0688 108 40.0688 108C40.0688 108 40.0688 108 40.0688 108C40.0688 108 40.0688 108 40.0688 108C40.0688 108 40.0688 108 40.0688 108C40.0688 108 40.0688 108 40.0688 108C40.0688 108 40.0688 108 40.0688 108C40.0688 108 40.0688 108 40.0688 108C40.0688 108 40.0688 108 40.0688 108C40.0688 108 40.0688 108 40.0688 108C40.0688 108 40.0688 108 40.0688 108C40.0688 108 40.0688 108 40.0688 108C40.0688 108 40.0688 108 40.0688 108C40.0688 108 40.0688 108 40.0688 108C40.0688 108 40.0688 108 40.0688 108C40.0688 108 40.0688 108 40.0688 108C40.0688 108 40.0688 108 40.0688 108C40.0688 108 40.0688 108 40.0688 108C40.0688 108 40.0688 108 40.0688 108C40.0688 108 40.0688 108 40.0688 108C40.0688 108 40.0688 108 40.0688 108C40.0688 108 40.0688 108 40.0688 108C40.0688 108 40.0688 108 40.0688 108C40.0688 108 40.0688 108 40.0688 108C40.0688 108 40.0688 108 40.0688 108C40.0688 108 40.0688 108 40.0688 108C40.0688 108 40.0688 108 40.0688 108C40.0688 108 40.0688 108 40.0688 108C40.0688 108 40.0688 108 40.0688 108C40.0688 108 40.0688 108 40.0688 108C40.0688 108 40.0688 108 40.0688 108C40.0688 108 40.0688 108 40.0688 108C40.0688 108 40.0688 108 40.0688 108C40.0688 108 40.0688 108 40.0688 108C40.0688 108 40.0688 108 40.0688 108C40.0688 108 40.0688 108 40.0688 108C40.0688 108 40.0688 108 40.0688 108C40.0688 108 40.0688 108 40.0688 108C40.0688 108 40.0688 108 40.0688 108C40.0688 108 40.0688 108 40.0688 108C40.0688 108 40.0688 108 40.0688 108C40.0688 108 40.0688 108 40.0688 108C40.0688 108 40.0688 108 40.0688 108C40.0688 108 40.0688 108 40.0688 108C40.0688 108 40.0688 108 40.0688 108C40.0688 108 40.0688 108 40.0688 108C40.0688 108 40.0688 108 40.0688 108C40.0688 108 40.0688 108 40.0688 108C40.0688 108 40.0688 108 40.0688 108C40.0688 108 40.0688 108 40.0688 108C40.0688 108 40.0688 108 40.0688 108C40.0688 108 40.0688 108 40.0688 108C40.0688 108 40.0688 108 40.0688 108C40.0688 108 40.0688 108 40.0688 108C40.0688 108 40.0688 108 40.0688 108C40.0688 108 40.0688 108 40.0688 108C40.0688 108 40.0688 108 40.0688 108C40.0688 108 40.0688 108 40.0688 108C40.0688 108 40.0688 108 40.0688 108C40.0688 108 40.0688 108 40.0688 108C40.0688 108 40.0688 108 40.0688 108C40.0688 108 40.0688 108 40.0688 108C40.0688 108 40.0688 108 40.0688 108C40.0688 108 40.0688 108 40.0688 108C40.0688 108 40.0688 108 40.0688 108C40.0688 108 40.0688 108 40.0688 108C40.0688 108 40.0688 108 40.0688 108C40.0688 108 40.0688 108 40.0688 108C40.0688 108 40.0688 108 40.0688 108C40.0688 108 40.0688 108 40.0688 108C40.0688 108 40.0688 108 40.0688 108C40.0688 108 40.0688 108 40.0688 108C40.0688 108 40.0688 108 40.0688 108C40.0688 108 40.0688 108 40.0688 108C40.0688 108 40.0688 108 40.0688 108C40.0688 108 40.0688 108 40.0688 108C40.0688 108 40.0688 108 40.0688 108C40.0688 108 40.0688 108 40.0688 108C40.0688 108 40.0688 108 40.0688 108C40.0688 108 40.0688 108 40.0688 108C40.0688 108 40.0688 108 40.0688 108C40.0688 108 40.0688 108 40.0688 108C40.0688 108 40.0688 108 40.0688 108C40.0688 108 40.0688 108 40.0688 108C40.0688 108 40.0688 108 40.0688 108C40.0688 108 40.0688 108 40.0688 108C40.0688 108 40.0688 108 40.0688 108C40.0688 108 40.0688 108 40.0688 108C40.0688 108 40.0688 108 40.0688 108C40.0688 108 40.0688 108 40.0688 108C40.0688 108 40.0688 108 40.0688 108C40.0688 108 40.0688 108 40.0688 108C40.0688 108 40.0688 108 40.0688 108C40.0688 108 40.0688 108 40.0688 108C40.0688 108 40.0688 108 40.0688 108C40.0688 108 40.0688 108 40.0688 108C40.0688 108 40.0688 108 40.0688 108C40.0688 108 40.0688 108 40.0688 108C40.0688 108 40.0688 108 40.0688 108C40.0688 108 40.0688 108 40.0688 108C40.0688 108 40.0688 108 40.0688 108C40.0688 108 40.0688 108 40.0688 108C40.0688 108 40.0688 108 40.0688 108C40.0688 108 40.0688 108 40.0688 108C40.0688 108 40.0688 108 40.0688 108C40.0688 108 40.0688 108 40.0688 108C40.0688 108 40.0688 108 40.0688 108C40.0688 108 40.0688 108 40.0688 108C40.0688 108 40.0688 108 40.0688 108C40.0688 108 40.0688 108 40.0688 108C40.0688 108 40.0688 108 40.0688 108C40.0688 108 40.0688 108 40.0688 108C40.0688 108 40.0688 108 40.0688 108C40.0688 108 40.0688 108 40.0688 108C40.0688 108 40.0688 108 40.0688 108C40.0688 108 40.0688 108 40.0688 108C40.0688 108 40.0688 108 40.0688 108C40.0688 108 40.0688 108 40.0688 108C40.0688 108 40.0688 108 40.0688 108C40.0688 108 40.0688 108 40.0688 108C40.0688 108 40.0688 108 40.0688 108C40.0688 108 40.0688 108 40.0688 108C40.0688 108 40.0688 108 40.0688 108C40.0688 108 40.0688 108 40.0688 108C40.0688 108 40.0688 108 40.0688 108C40.0688 108 40.0688 108 40.0688 108C40.0688 108 40.0688 108 40.0688 108C40.0688 108 40.0688 108 40.0688 108C40.0688 108 40.0688 108 40.0688 108C40.0688 108 40.0688 108 40.0688 108C40.0688 108 40.0688 108 40.0688 108C40.0688 108 40.0688 108 40.0688 108C40.0688 108 40.0688 108 40.0688 108C40.0688 108 40.0688 108 40.0688 108C40.0688 108 40.0688 108 40.0688 108C40.0688 108 40.0688 108 40.0688 108C40.0688 108 40.0688 108 40.0688 108C40.0688 108 40.0688 108 40.0688 108C40.0688 108 40.0688 108 40.0688 108C40.0688 108 40.0688 108 40.0688 108C40.0688 108 40.0688 108 40.0688 108C40.0688 108 40.0688 108 40.0688 108C40.0688 108 40.0688 108 40.0688 108C40.0688 108 40.0688 108 40.0688 108C40.0688 108 40.0688 108 40.0688 108C40.0688 108 40.0688 108 40.0688 108C40.0688 108 40.0688 108 40.0688 108C40.0688 108 40.0688 108 40.0688 108C40.0688 108 40.0688 108 40.0688 108C40.0688 108 40.0688 108 40.0688 108C40.0688 108 40.0688 108 40.0688 108C40.0688 108 40.0688 108 40.0688 108C40.0688 108 40.0688 108 40.0688 108C40.0688 108 40.0688 108 40.0688 108C40.0688 108 40.0688 108 40.0688 108C40.0688 108 40.0688 108 40.0688 108C40.0688 108 40.0688 108 40.0688 108C40.0688 108 40.0688 108 40.0688 108C40.0688 108 40.0688 108 40.0688 108C40.0688 108 40.0688 108 40.0688 108C40.0688 108 40.0688 108 40.0688 108C40.0688 108 40.0688 108 40.0688 108C40.0688 108 40.0688 108 40.0688 108C40.0688 108 40.0688 108 40.0688 108C40.0688 108 40.0688 108 40.0688 108C40.0688 108 40.0688 108 40.0688 108C40.0688 108 40.0688 108 40.0688 108C40.0688 108 40.0688 108 40.0688 108C40.0688 108 40.0688 108 40.0688 108C40.0688 108 40.0688 108 40.0688 108C40.0688 108 40.0688 108 40.0688 108C40.0688 108 40.0688 108 40.0688 108C40.0688 108 40.0688 108 40.0688 108C40.0688 108 40.0688 108 40.0688 108C40.0688 108 40.0688 108 40.0688 108C40.0688 108 40.0688 108 40.0688 108C40.0688 108 40.0688 108 40.0688 108C40.0688 108 40.0688 108 40.0688 108C40.0688 108 40.0688 108 40.0688 108C40.0688 108 40.0688 108 40.0688 108C40.0688 108 40.0688 108 40.0688 108C40.0688 108 40.0688 108 40.0688 108C40.0688 108 40.0688 108 40.0688 108C40.0688 108 40.0688 108 40.0688 108C40.0688 108 40.0688 108 40.0688 108C40.0688 108 40.0688 108 40.0688 108C40.0688 108 40.0688 108 40.0688 108C40.0688 108 40.0688 108 40.0688 108C40.0688 108 40.0688 108 40.0688 108C40.0688 108 40.0688 108 40.0688 108C40.0688 108 40.0688 108 40.0688 108C40.0688 108 40.0688 108 40.0688 108C40.0688 108 40.0688 108 40.0688 108C40.0688 108 40.0688 108 40.0688 108C40.0688 108 40.0688 108 40.0688 108C40.0688 108 40.0688 108 40.0688 108C40.0688 108 40.0688 108 40.0688 108C40.0688 108 40.0688 108 40.0688 108C40.0688 108 40.0688 108 40.0688 108C40.0688 108 40.0688 108 40.0688 108C40.0688 108 40.0688 108 40.0688 108C40.0688 108 40.0688 108 40.0688 108C40.0688 108 40.0688 108 40.0688 108C40.0688 108 40.0688 108 40.0688 108C40.0688 108 40.0688 108 40.0688 108C40.0688 108 40.0688 108 40.0688 108C40.0688 108 40.0688 108 40.0688 108C40.0688 108 40.0688 108 40.0688 108C40.0688 108 40.0688 108 40.0688 108C40.0688 108 40.0688 108 40.0688 108C40.0688 108 40.0688 108 40.0688 108C40.0688 108 40.0688 108 40.0688 108C40.0688 108 40.0688 108 40.0688 108C40.0688 108 40.0688 108 40.0688 108C40.0688 108 40.0688 108 40.0688 108C40.0688 108 40.0688 108 40.0688 108C40.0688 108 40.0688 108 40.0688 108C40.0688 108 40.0688 108 40.0688 108C40.0688 108 40.0688 108 40.0688 108C40.0688 108 40.0688 108 40.0688 108C40.0688 108 40.0688 108 40.0688 108C40.0688 108 40.0688 108 40.0688 108C40.0688 108 40.0688 108 40.0688 108C40.0688 108 40.0688 108 40.0688 108C40.0688 108 40.0688 108 40.0688 108C40.0688 108 40.0688 108 40.0688 108C40.0688 108 40.0688 108 40.0688 108C40.0688 108 40.0688 108 40.0688 108C40.0688 108 40.0688 108 40.0688 108C40.0688 108 40.0688 108 40.0688 108C40.0688 108 40.0688 108 40.0688 108C40.0688 108 40.0688 108 40.0688 108C40.0688 108 40.0688 108 40.0688 108C40.0688 108 40.0688 108 40.0688 108C40.0688 108 40.0688 108 40.0688 108C40.0688 108 40.0688 108 40.0688 108C40.0688 108 40.0688 108 40.0688 108C40.0688 108 40.0688 108 40.0688 108C40.0688 108 40.0688 108 40.0688 108C40.0688 108 40.0688 108 40.0688 108C40.0688 108 40.0688 108 40.0688 108C40.0688 108 40.0688 108 40.0688 108C40.0688 108 40.0688 108 40.0688 108C40.0688 108 40.0688 108 40.0688 108C40.0688 108 40.0688 108 40.0688 108C40.0688 108 40.0688 108 40.0688 108C40.0688 108 40.0688 108 40.0688 108C40.0688 108 40.0688 108 40.0688 108C40.0688 108 40.0688 108 40.0688 108C40.0688 108 40.0688 108 40.0688 108C40.0688 108 40.0688 108 40.0688 108C40.0688 108 40.0688 108 40.0688 108C40.0688 108 40.0688 108 40.0688 108C40.0688 108 40.0688 108 40.0688 108C40.0688 108 40.0688 108 40.0688 108C40.0688 108 40.0688 108 40.0688 108C40.0688 108 40.0688 108 40.0688 108C40.0688 108 40.0688 108 40.0688 108C40.0688 108 40.0688 108 40.0688 108C40.0688 108 40.0688 108 40.0688 108C40.0688 108 40.0688 108 40.0688 108C40.0688 108 40.0688 108 40.0688 108C40.0688 108 40.0688 108 40.0688 108C40.0688 108 40.0688 108 40.0688 108C40.0688 108 40.0688 108 40.0688 108C40.0688 108 40.0688 108 40.0688 108C40.0688 108 40.0688 108 40.0688 108C40.0688 108 40.0688 108 40.0688 108C40.0688 108 40.0688 108 40.0688 108C40.0688 108 40.0688 108 40.0688 108C40.0688 108 40.0688 108 40.0688 108C40.0688 108 40.0688 108 40.0688 108C40.0688 108 40.0688 108 40.0688 108C40.0688 108 40.0688 108 40.0688 108C40.0688 108 40.0688 108 40.0688 108C40.0688 108 40.0688 108 40.0688 108C40.0688 108 40.0688 108 40.0688 108C40.0688 108 40.0688 108 40.0688 108C40.0688 108 40.0688 108 40.0688 108C40.0688 108 40.0688 108 40.0688 108C40.0688 108 40.0688 108 40.0688 108C40.0688 108 40.0688 108 40.0688 108C40.0688 108 40.0688 108 40.0688 108C40.0688 108 40.0688 108 40.0688 108C40.0688 108 40.0688 108 40.0688 108C40.0688 108 40.0688 108 40.0688 108C40.0688 108 40.0688 108 40.0688 108C40.0688 108 40.0688 108 40.0688 108C40.0688 108 40.0688 108 40.0688 108C40.0688 108 40.0688 108 40.0688 108C40.0688 108 40.0688 108 40.0688 108C40.0688 108 40.0688 108 40.0688 108C40.0688 108 40.0688 108 40.0688 108C40.0688 108 40.0688 108 40.0688 108C40.0688 108 40.0688 108 40.0688 108C40.0688 108 40.0688 108 40.0688 108C40.0688 108 40.0688 108 40.0688 108C40.0688 108 40.0688 108 40.0688 108C40.0688 108 40.0688 108 40.0688 108C40.0688 108 40.0688 108 40.0688 108C40.0688 108 40.0688 108 40.0688 108C40.0688 108 40.0688 108 40.0688 108C40.0688 108 40.0688 108 40.0688 108C40.0688 108 40.0688 108 40.0688 108C40.0688 108 40.0688 108 40.0688 108C40.0688 108 40.0688 108 40.0688 108C40.0688 108 40.0688 108 40.0688 108C40.0688 108 40.0688 108 40.0688 108C40.0688 108 40.0688 108 40.0688 108C40.0688 108 40.0688 108 40.0688 108C40.0688 108 40.0688 108 40.0688 108C40.0688 108 40.0688 108 40.0688 108C40.0688 108 40.0688 108 40.0688 108C40.0688 108 40.0688 108 40.0688 108C40.0688 108 40.0688 108 40.0688 108C40.0688 108 40.0688 108 40.0688 108C40.0688 108 40.0688 108 40.0688 108C40.0688 108 40.0688 108 40.0688 108C40.0688 108 40.0688 108 40.0688 108C40.0688 108 40.0688 108 40.0688 108C40.0688 108 40.0688 108 40.0688 108C40.0688 108 40.0688 108 40.0688 108C40.0688 108 40.0688 108 40.0688 108C40.0688 108 40.0688 108 40.0688 108C40.0688 108 40.0688 108 40.0688 108C40.0688 108 40.0688 108 40.0688 108C40.0688 108 40.0688 108 40.0688 108C40.0688 108 40.0688 108 40.0688 108C40.0688 108 40.0688 108 40.0688 108C40.0688 108 40.0688 108 40.0688 108C40.0688 108 40.0688 108 40.0688 108C40.0688 108 40.0688 108 40.0688 108C40.0688 108 40.0688 108 40.0688 108C40.0688 108 40.0688 108 40.0688 108C40.0688 108 40.0688 108 40.0688 108C40.0688 108 40.0688 108 40.0688 108C40.0688 108 40.0688 108 40.0688 108C40.0688 108 40.0688 108 40.0688 108C40.0688 108 40.0688 108 40.0688 108C40.0688 108 40.0688 108 40.0688 108C40.0688 108 40.0688 108 40.0688 108C40.0688 108 40.0688 108 40.0688 108C40.0688 108 40.0688 108 40.0688 108L40.0688 112C40.0688 112 40.0688 112 40.0688 112C40.0688 112 40.0688 112 40.0688 112C40.0688 112 40.0688 112 40.0688 112C40.0688 112 40.0688 112 40.0688 112C40.0688 112 40.0688 112 40.0688 112C40.0688 112 40.0688 112 40.0688 112C40.0688 112 40.0688 112 40.0688 112C40.0688 112 40.0688 112 40.0688 112C40.0688 112 40.0688 112 40.0688 112C40.0688 112 40.0688 112 40.0688 112C40.0688 112 40.0688 112 40.0688 112C40.0688 112 40.0688 112 40.0688 112C40.0688 112 40.0688 112 40.0688 112C40.0688 112 40.0688 112 40.0688 112C40.0688 112 40.0688 112 40.0688 112C40.0688 112 40.0688 112 40.0688 112C40.0688 112 40.0688 112 40.0688 112C40.0688 112 40.0688 112 40.0688 112C40.0688 112 40.0688 112 40.0688 112C40.0688 112 40.0688 112 40.0688 112C40.0688 112 40.0688 112 40.0688 112C40.0688 112 40.0688 112 40.0688 112C40.0688 112 40.0688 112 40.0688 112C40.0688 112 40.0688 112 40.0688 112C40.0688 112 40.0688 112 40.0688 112C40.0688 112 40.0688 112 40.0688 112C40.0688 112 40.0688 112 40.0688 112C40.0688 112 40.0688 112 40.0688 112C40.0688 112 40.0688 112 40.0688 112C40.0688 112 40.0688 112 40.0688 112C40.0688 112 40.0688 112 40.0688 112C40.0688 112 40.0688 112 40.0688 112C40.0688 112 40.0688 112 40.0688 112C40.0688 112 40.0688 112 40.0688 112C40.0688 112 40.0688 112 40.0688 112C40.0688 112 40.0688 112 40.0688 112C40.0688 112 40.0688 112 40.0688 112C40.0688 112 40.0688 112 40.0688 112C40.0688 112 40.0688 112 40.0688 112C40.0688 112 40.0688 112 40.0688 112C40.0688 112 40.0688 112 40.0688 112C40.0688 112 40.0688 112 40.0688 112C40.0688 112 40.0688 112 40.0688 112C40.0688 112 40.0688 112 40.0688 112C40.0688 112 40.0688 112 40.0688 112C40.0688 112 40.0688 112 40.0688 112C40.0688 112 40.0688 112 40.0688 112C40.0688 112 40.0688 112 40.0688 112C40.0688 112 40.0688 112 40.0688 112C40.0688 112 40.0688 112 40.0688 112C40.0688 112 40.0688 112 40.0688 112C40.0688 112 40.0688 112 40.0688 112C40.0688 112 40.0688 112 40.0688 112C40.0688 112 40.0688 112 40.0688 112C40.0688 112 40.0688 112 40.0688 112C40.0688 112 40.0688 112 40.0688 112C40.0688 112 40.0688 112 40.0688 112C40.0688 112 40.0688 112 40.0688 112C40.0688 112 40.0688 112 40.0688 112C40.0688 112 40.0688 112 40.0688 112C40.0688 112 40.0688 112 40.0688 112C40.0688 112 40.0688 112 40.0688 112C40.0688 112 40.0688 112 40.0688 112C40.0688 112 40.0688 112 40.0688 112C40.0688 112 40.0688 112 40.0688 112C40.0688 112 40.0688 112 40.0688 112C40.0688 112 40.0688 112 40.0688 112C40.0688 112 40.0688 112 40.0688 112C40.0688 112 40.0688 112 40.0688 112C40.0688 112 40.0688 112 40.0688 112C40.0688 112 40.0688 112 40.0688 112C40.0688 112 40.0688 112 40.0688 112C40.0688 112 40.0688 112 40.0688 112C40.0688 112 40.0688 112 40.0688 112C40.0688 112 40.0688 112 40.0688 112C40.0688 112 40.0688 112 40.0688 112C40.0688 112 40.0688 112 40.0688 112C40.0688 112 40.0688 112 40.0688 112C40.0688 112 40.0688 112 40.0688 112C40.0688 112 40.0688 112 40.0688 112C40.0688 112 40.0688 112 40.0688 112C40.0688 112 40.0688 112 40.0688 112C40.0688 112 40.0688 112 40.0688 112C40.0688 112 40.0688 112 40.0688 112C40.0688 112 40.0688 112 40.0688 112C40.0688 112 40.0688 112 40.0688 112C40.0688 112 40.0688 112 40.0688 112C40.0688 112 40.0688 112 40.0688 112C40.0688 112 40.0688 112 40.0688 112C40.0688 112 40.0688 112 40.0688 112C40.0688 112 40.0688 112 40.0688 112C40.0688 112 40.0688 112 40.0688 112C40.0688 112 40.0688 112 40.0688 112C40.0688 112 40.0688 112 40.0688 112C40.0688 112 40.0688 112 40.0688 112C40.0688 112 40.0688 112 40.0688 112C40.0688 112 40.0688 112 40.0688 112C40.0688 112 40.0688 112 40.0688 112C40.0688 112 40.0688 112 40.0688 112C40.0688 112 40.0688 112 40.0688 112C40.0688 112 40.0688 112 40.0688 112C40.0688 112 40.0688 112 40.0688 112C40.0688 112 40.0688 112 40.0688 112C40.0688 112 40.0688 112 40.0688 112C40.0688 112 40.0688 112 40.0688 112C40.0688 112 40.0688 112 40.0688 112C40.0688 112 40.0688 112 40.0688 112C40.0688 112 40.0688 112 40.0688 112C40.0688 112 40.0688 112 40.0688 112C40.0688 112 40.0688 112 40.0688 112C40.0688 112 40.0688 112 40.0688 112C40.0688 112 40.0688 112 40.0688 112C40.0688 112 40.0688 112 40.0688 112C40.0688 112 40.0688 112 40.0688 112C40.0688 112 40.0688 112 40.0688 112C40.0688 112 40.0688 112 40.0688 112C40.0688 112 40.0688 112 40.0688 112C40.0688 112 40.0688 112 40.0688 112C40.0688 112 40.0688 112 40.0688 112C40.0688 112 40.0688 112 40.0688 112C40.0688 112 40.0688 112 40.0688 112C40.0688 112 40.0688 112 40.0688 112C40.0688 112 40.0688 112 40.0688 112C40.0688 112 40.0688 112 40.0688 112C40.0688 112 40.0688 112 40.0688 112C40.0688 112 40.0688 112 40.0688 112C40.0688 112 40.0688 112 40.0688 112C40.0688 112 40.0688 112 40.0688 112C40.0688 112 40.0688 112 40.0688 112C40.0688 112 40.0688 112 40.0688 112C40.0688 112 40.0688 112 40.0688 112C40.0688 112 40.0688 112 40.0688 112C40.0688 112 40.0688 112 40.0688 112C40.0688 112 40.0688 112 40.0688 112C40.0688 112 40.0688 112 40.0688 112C40.0688 112 40.0688 112 40.0688 112C40.0688 112 40.0688 112 40.0688 112C40.0688 112 40.0688 112 40.0688 112C40.0688 112 40.0688 112 40.0688 112C40.0688 112 40.0688 112 40.0688 112C40.0688 112 40.0688 112 40.0688 112C40.0688 112 40.0688 112 40.0688 112C40.0688 112 40.0688 112 40.0688 112C40.0688 112 40.0688 112 40.0688 112C40.0688 112 40.0688 112 40.0688 112C40.0688 112 40.0688 112 40.0688 112C40.0688 112 40.0688 112 40.0688 112C40.0688 112 40.0688 112 40.0688 112C40.0688 112 40.0688 112 40.0688 112C40.0688 112 40.0688 112 40.0688 112C40.0688 112 40.0688 112 40.0688 112C40.0688 112 40.0688 112 40.0688 112C40.0688 112 40.0688 112 40.0688 112C40.0688 112 40.0688 112 40.0688 112C40.0688 112 40.0688 112 40.0688 112C40.0688 112 40.0688 112 40.0688 112C40.0688 112 40.0688 112 40.0688 112C40.0688 112 40.0688 112 40.0688 112C40.0688 112 40.0688 112 40.0688 112C40.0688 112 40.0688 112 40.0688 112C40.0688 112 40.0688 112 40.0688 112C40.0688 112 40.0688 112 40.0688 112C40.0688 112 40.0688 112 40.0688 112C40.0688 112 40.0688 112 40.0688 112C40.0688 112 40.0688 112 40.0688 112C40.0688 112 40.0688 112 40.0688 112C40.0688 112 40.0688 112 40.0688 112C40.0688 112 40.0688 112 40.0688 112C40.0688 112 40.0688 112 40.0688 112C40.0688 112 40.0688 112 40.0688 112C40.0688 112 40.0688 112 40.0688 112C40.0688 112 40.0688 112 40.0688 112C40.0688 112 40.0688 112 40.0688 112C40.0688 112 40.0688 112 40.0688 112C40.0688 112 40.0688 112 40.0688 112C40.0688 112 40.0688 112 40.0688 112C40.0688 112 40.0688 112 40.0688 112C40.0688 112 40.0688 112 40.0688 112C40.0688 112 40.0688 112 40.0688 112C40.0688 112 40.0688 112 40.0688 112C40.0688 112 40.0688 112 40.0688 112C40.0688 112 40.0688 112 40.0688 112C40.0688 112 40.0688 112 40.0688 112C40.0688 112 40.0688 112 40.0688 112C40.0688 112 40.0688 112 40.0688 112C40.0688 112 40.0688 112 40.0688 112C40.0688 112 40.0688 112 40.0688 112C40.0688 112 40.0688 112 40.0688 112C40.0688 112 40.0688 112 40.0688 112C40.0688 112 40.0688 112 40.0688 112C40.0688 112 40.0688 112 40.0688 112C40.0688 112 40.0688 112 40.0688 112C40.0688 112 40.0688 112 40.0688 112C40.0688 112 40.0688 112 40.0688 112C40.0688 112 40.0688 112 40.0688 112C40.0688 112 40.0688 112 40.0688 112C40.0688 112 40.0688 112 40.0688 112C40.0688 112 40.0688 112 40.0688 112C40.0688 112 40.0688 112 40.0688 112C40.0688 112 40.0688 112 40.0688 112C40.0688 112 40.0688 112 40.0688 112C40.0688 112 40.0688 112 40.0688 112C40.0688 112 40.0688 112 40.0688 112C40.0688 112 40.0688 112 40.0688 112C40.0688 112 40.0688 112 40.0688 112C40.0688 112 40.0688 112 40.0688 112C40.0688 112 40.0688 112 40.0688 112C40.0688 112 40.0688 112 40.0688 112C40.0688 112 40.0688 112 40.0688 112C40.0688 112 40.0688 112 40.0688 112C40.0688 112 40.0688 112 40.0688 112C40.0688 112 40.0688 112 40.0688 112C40.0688 112 40.0688 112 40.0688 112C40.0688 112 40.0688 112 40.0688 112C40.0688 112 40.0688 112 40.0688 112C40.0688 112 40.0688 112 40.0688 112C40.0688 112 40.0688 112 40.0688 112C40.0688 112 40.0688 112 40.0688 112C40.0688 112 40.0688 112 40.0688 112C40.0688 112 40.0688 112 40.0688 112C40.0688 112 40.0688 112 40.0688 112C40.0688 112 40.0688 112 40.0688 112C40.0688 112 40.0688 112 40.0688 112C40.0688 112 40.0688 112 40.0688 112C40.0688 112 40.0688 112 40.0688 112C40.0688 112 40.0688 112 40.0688 112C40.0688 112 40.0688 112 40.0688 112C40.0688 112 40.0688 112 40.0688 112C40.0688 112 40.0688 112 40.0688 112C40.0688 112 40.0688 112 40.0688 112C40.0688 112 40.0688 112 40.0688 112C40.0688 112 40.0688 112 40.0688 112C40.0688 112 40.0688 112 40.0688 112C40.0688 112 40.0688 112 40.0688 112C40.0688 112 40.0688 112 40.0688 112C40.0688 112 40.0688 112 40.0688 112C40.0688 112 40.0688 112 40.0688 112C40.0688 112 40.0688 112 40.0688 112C40.0688 112 40.0688 112 40.0688 112C40.0688 112 40.0688 112 40.0688 112C40.0688 112 40.0688 112 40.0688 112C40.0688 112 40.0688 112 40.0688 112C40.0688 112 40.0688 112 40.0688 112C40.0688 112 40.0688 112 40.0688 112C40.0688 112 40.0688 112 40.0688 112C40.0688 112 40.0688 112 40.0688 112C40.0688 112 40.0688 112 40.0688 112C40.0688 112 40.0688 112 40.0688 112C40.0688 112 40.0688 112 40.0688 112C40.0688 112 40.0688 112 40.0688 112C40.0688 112 40.0688 112 40.0688 112C40.0688 112 40.0688 112 40.0688 112C40.0688 112 40.0688 112 40.0688 112C40.0688 112 40.0688 112 40.0688 112C40.0688 112 40.0688 112 40.0688 112C40.0688 112 40.0688 112 40.0688 112C40.0688 112 40.0688 112 40.0688 112C40.0688 112 40.0688 112 40.0688 112C40.0688 112 40.0688 112 40.0688 112C40.0688 112 40.0688 112 40.0688 112C40.0688 112 40.0688 112 40.0688 112C40.0688 112 40.0688 112 40.0688 112C40.0688 112 40.0688 112 40.0688 112C40.0688 112 40.0688 112 40.0688 112C40.0688 112 40.0688 112 40.0688 112C40.0688 112 40.0688 112 40.0688 112C40.0688 112 40.0688 112 40.0688 112C40.0688 112 40.0688 112 40.0688 112C40.0688 112 40.0688 112 40.0688 112C40.0688 112 40.0688 112 40.0688 112C40.0688 112 40.0688 112 40.0688 112C40.0688 112 40.0688 112 40.0688 112C40.0688 112 40.0688 112 40.0688 112C40.0688 112 40.0688 112 40.0688 112C40.0688 112 40.0688 112 40.0688 112C40.0688 112 40.0688 112 40.0688 112C40.0688 112 40.0688 112 40.0688 112C40.0688 112 40.0688 112 40.0688 112C40.0688 112 40.0688 112 40.0688 112C40.0688 112 40.0688 112 40.0688 112C40.0688 112 40.0688 112 40.0688 112C40.0688 112 40.0688 112 40.0688 112C40.0688 112 40.0688 112 40.0688 112C40.0688 112 40.0688 112 40.0688 112C40.0688 112 40.0688 112 40.0688 112C40.0688 112 40.0688 112 40.0688 112C40.0688 112 40.0688 112 40.0688 112C40.0688 112 40.0688 112 40.0688 112C40.0688 112 40.0688 112 40.0688 112C40.0688 112 40.0688 112 40.0688 112C40.0688 112 40.0688 112 40.0688 112C40.0688 112 40.0688 112 40.0688 112C40.0688 112 40.0688 112 40.0688 112C40.0688 112 40.0688 112 40.0688 112C40.0688 112 40.0688 112 40.0688 112C40.0688 112 40.0688 112 40.0688 112C40.0688 112 40.0688 112 40.0688 112C40.0688 112 40.0688 112 40.0688 112C40.0688 112 40.0688 112 40.0688 112C40.0688 112 40.0688 112 40.0688 112C40.0688 112 40.0688 112 40.0688 112C40.0688 112 40.0688 112 40.0688 112C40.0688 112 40.0688 112 40.0688 112C40.0688 112 40.0688 112 40.0688 112C40.0688 112 40.0688 112 40.0688 112C40.0688 112 40.0688 112 40.0688 112C40.0688 112 40.0688 112 40.0688 112C40.0688 112 40.0688 112 40.0688 112C40.0688 112 40.0688 112 40.0688 112C40.0688 112 40.0688 112 40.0688 112C40.0688 112 40.0688 112 40.0688 112C40.0688 112 40.0688 112 40.0688 112C40.0688 112 40.0688 112 40.0688 112C40.0688 112 40.0688 112 40.0688 112C40.0688 112 40.0688 112 40.0688 112C40.0688 112 40.0688 112 40.0688 112C40.0688 112 40.0688 112 40.0688 112C40.0688 112 40.0688 112 40.0688 112C40.0688 112 40.0688 112 40.0688 112C40.0688 112 40.0688 112 40.0688 112C40.0688 112 40.0688 112 40.0688 112C40.0688 112 40.0688 112 40.0688 112C40.0688 112 40.0688 112 40.0688 112C40.0688 112 40.0688 112 40.0688 112C40.0688 112 40.0688 112 40.0688 112C40.0688 112 40.0688 112 40.0688 112C40.0688 112 40.0688 112 40.0688 112C40.0688 112 40.0688 112 40.0688 112C40.0688 112 40.0688 112 40.0688 112C40.0688 112 40.0688 112 40.0688 112C40.0688 112 40.0688 112 40.0688 112C40.0688 112 40.0688 112 40.0688 112C40.0688 112 40.0688 112 40.0688 112C40.0688 112 40.0688 112 40.0688 112C40.0688 112 40.0688 112 40.0688 112C40.0688 112 40.0688 112 40.0688 112C40.0688 112 40.0688 112 40.0688 112C40.0688 112 40.0688 112 40.0688 112C40.0688 112 40.0688 112 40.0688 112C40.0688 112 40.0688 112 40.0688 112C40.0688 112 40.0688 112 40.0688 112C40.0688 112 40.0688 112 40.0688 112C40.0688 112 40.0688 112 40.0688 112C40.0688 112 40.0688 112 40.0688 112C40.0688 112 40.0688 112 40.0688 112C40.0688 112 40.0688 112 40.0688 112C40.0688 112 40.0688 112 40.0688 112C40.0688 112 40.0688 112 40.0688 112C40.0688 112 40.0688 112 40.0688 112C40.0688 112 40.0688 112 40.0688 112C40.0688 112 40.0688 112 40.0688 112C40.0688 112 40.0688 112 40.0688 112C40.0688 112 40.0688 112 40.0688 112C40.0688 112 40.0688 112 40.0688 112C40.0688 112 40.0688 112 40.0688 112C40.0688 112 40.0688 112 40.0688 112C40.0688 112 40.0688 112 40.0688 112C40.0688 112 40.0688 112 40.0688 112C40.0688 112 40.0688 112 40.0688 112C40.0688 112 40.0688 112 40.0688 112C40.0688 112 40.0688 112 40.0688 112C40.0688 112 40.0688 112 40.0688 112C40.0688 112 40.0688 112 40.0688 112C40.0688 112 40.0688 112 40.0688 112C40.0688 112 40.0688 112 40.0688 112C40.0688 112 40.0688 112 40.0688 112C40.0688 112 40.0688 112 40.0688 112C40.0688 112 40.0688 112 40.0688 112C40.0688 112 40.0688 112 40.0688 112C40.0688 112 40.0688 112 40.0688 112C40.0688 112 40.0688 112 40.0688 112C40.0688 112 40.0688 112 40.0688 112C40.0688 112 40.0688 112 40.0688 112C40.0688 112 40.0688 112 40.0688 112C40.0688 112 40.0688 112 40.0688 112C40.0688 112 40.0688 112 40.0688 112C40.0688 112 40.0688 112 40.0688 112C40.0688 112 40.0688 112 40.0688 112C40.0688 112 40.0688 112 40.0688 112C40.0688 112 40.0688 112 40.0688 112C40.0688 112 40.0688 112 40.0688 112C40.0688 112 40.0688 112 40.0688 112C40.0688 112 40.0688 112 40.0688 112C40.0688 112 40.0688 112 40.0688 112C40.0688 112 40.0688 112 40.0688 112C40.0688 112 40.0688 112 40.0688 112C40.0688 112 40.0688 112 40.0688 112C40.0688 112 40.0688 112 40.0688 112C40.0688 112 40.0688 112 40.0688 112C40.0688 112 40.0688 112 40.0688 112C40.0688 112 40.0688 112 40.0688 112C40.0688 112 40.0688 112 40.0688 112C40.0688 112 40.0688 112 40.0688 112C40.0688 112 40.0688 112 40.0688 112C40.0688 112 40.0688 112 40.0688 112C40.0688 112 40.0688 112 40.0688 112C40.0688 112 40.0688 112 40.0688 112C40.0688 112 40.0688 112 40.0688 112C40.0688 112 40.0688 112 40.0688 112C40.0688 112 40.0688 112 40.0688 112C40.0688 112 40.0688 112 40.0688 112C40.0688 112 40.0688 112 40.0688 112C40.0688 112 40.0688 112 40.0688 112C40.0688 112 40.0688 112 40.0688 112C40.0688 112 40.0688 112 40.0688 112C40.0688 112 40.0688 112 40.0688 112C40.0688 112 40.0688 112 40.0688 112C40.0688 112 40.0688 112 40.0688 112C40.0688 112 40.0688 112 40.0688 112C40.0688 112 40.0688 112 40.0688 112C40.0688 112 40.0688 112 40.0688 112C40.0688 112 40.0688 112 40.0688 112C40.0688 112 40.0688 112 40.0688 112C40.0688 112 40.0688 112 40.0688 112C40.0688 112 40.0688 112 40.0688 112C40.0688 112 40.0688 112 40.0688 112C40.0688 112 40.0688 112 40.0688 112C40.0688 112 40.0688 112 40.0688 112C40.0688 112 40.0688 112 40.0688 112C40.0688 112 40.0688 112 40.0688 112C40.0688 112 40.0688 112 40.0688 112C40.0688 112 40.0688 112 40.0688 112C40.0688 112 40.0688 112 40.0688 112C40.0688 112 40.0688 112 40.0688 112C40.0688 112 40.0688 112 40.0688 112C40.0688 112 40.0688 112 40.0688 112C40.0688 112 40.0688 112 40.0688 112C40.0688 112 40.0688 112 40.0688 112C40.0688 112 40.0688 112 40.0688 112C40.0688 112 40.0688 112 40.0688 112C40.0688 112 40.0688 112 40.0688 112C40.0688 112 40.0688 112 40.0688 112C40.0688 112 40.0688 112 40.0688 112C40.0688 112 40.0688 112 40.0688 112C40.0688 112 40.0688 112 40.0688 112C40.0688 112 40.0688 112 40.0688 112C40.0688 112 40.0688 112 40.0688 112C40.0688 112 40.0688 112 40.0688 112C40.0688 112 40.0688 112 40.0688 112C40.0688 112 40.0688 112 40.0688 112C40.0688 112 40.0688 112 40.0688 112C40.0688 112 40.0688 112 40.0688 112C40.0688 112 40.0688 112 40.0688 112C40.0688 112 40.0688 112 40.0688 112C40.0688 112 40.0688 112 40.0688 112C40.0688 112 40.0688 112 40.0688 112C40.0688 112 40.0688 112 40.0688 112C40.0688 112 40.0688 112 40.0688 112C40.0688 112 40.0688 112 40.0688 112C40.0688 112 40.0688 112 40.0688 112C40.0688 112 40.0688 112 40.0688 112C40.0688 112 40.0688 112 40.0688 112C40.0688 112 40.0688 112 40.0688 112C40.0688 112 40.0688 112 40.0688 112C40.0688 112 40.0688 112 40.0688 112C40.0688 112 40.0688 112 40.0688 112C40.0688 112 40.0688 112 40.0688 112C40.0688 112 40.0688 112 40.0688 112C40.0688 112 40.0688 112 40.0688 112C40.0688 112 40.0688 112 40.0688 112C40.0688 112 40.0688 112 40.0688 112C40.0688 112 40.0688 112 40.0688 112C40.0688 112 40.0688 112 40.0688 112C40.0688 112 40.0688 112 40.0688 112C40.0688 112 40.0688 112 40.0688 112C40.0688 112 40.0688 112 40.0688 112C40.0688 112 40.0688 112 40.0688 112C40.0688 112 40.0688 112 40.0688 112C40.0688 112 40.0688 112 40.0688 112C40.0688 112 40.0688 112 40.0688 112C40.0688 112 40.0688 112 40.0688 112C40.0688 112 40.0688 112 40.0688 112C40.0688 112 40.0688 112 40.0688 112C40.0688 112 40.0688 112 40.0688 112C40.0688 112 40.0688 112 40.0688 112C40.0688 112 40.0688 112 40.0688 112C40.0688 112 40.0688 112 40.0688 112C40.0688 112 40.0688 112 40.0688 112C40.0688 112 40.0688 112 40.0688 112C40.0688 112 40.0688 112 40.0688 112C40.0688 112 40.0688 112 40.0688 112C40.0688 112 40.0688 112 40.0688 112C40.0688 112 40.0688 112 40.0688 112C40.0688 112 40.0688 112 40.0688 112C40.0688 112 40.0688 112 40.0688 112C40.0688 112 40.0688 112 40.0688 112C40.0688 112 40.0688 112 40.0688 112C40.0688 112 40.0688 112 40.0688 112C40.0688 112 40.0688 112 40.0688 112C40.0688 112 40.0688 112 40.0688 112C40.0688 112 40.0688 112 40.0688 112C40.0688 112 40.0688 112 40.0688 112C40.0688 112 40.0688 112 40.0688 112C40.0688 112 40.0688 112 40.0688 112C40.0688 112 40.0688 112 40.0688 112C40.0688 112 40.0688 112 40.0688 112C40.0688 112 40.0688 112 40.0688 112C40.0688 112 40.0688 112 40.0688 112C40.0688 112 40.0688 112 40.0688 112C40.0688 112 40.0688 112 40.0688 112C40.0688 112 40.0688 112 40.0688 112C40.0688 112 40.0688 112 40.0688 112C40.0688 112 40.0688 112 40.0688 112C40.0688 112 40.0688 112 40.0688 112C40.0688 112 40.0688 112 40.0688 112C40.0688 112 40.0688 112 40.0688 112C40.0688 112 40.0688 112 40.0688 112C40.0688 112 40.0688 112 40.0688 112C40.0688 112 40.0688 112 40.0688 112C40.0688 112 40.0688 112 40.0688 112C40.0688 112 40.0688 112 40.0688 112C40.0688 112 40.0688 112 40.0688 112L40.0688 108ZM38.0689 33.8621L38.0688 110L42.0688 110L42.0689 33.8621L38.0689 33.8621Z" fill="#32E3C3"/>
</svg>
