<svg width="149" height="162" viewBox="0 0 149 162" fill="none" xmlns="http://www.w3.org/2000/svg">
<path d="M100.057 6C109.939 31.1151 119.512 40.5327 143.113 49.0565C119.379 58.3828 110.112 67.9642 100.057 92.113C88.7842 68.0708 79.5662 58.3985 57.0001 49.0565C81.3702 40.752 90.5894 31.1274 100.057 6Z" stroke="#32E3C3" stroke-width="4"/>
<path d="M31.7012 79C37.5998 93.9915 43.3141 99.6129 57.4021 104.701C43.2347 110.268 37.7035 115.987 31.7012 130.402C24.9725 116.051 19.4702 110.277 6.00025 104.701C20.547 99.7439 26.0501 93.9989 31.7012 79Z" stroke="#32E3C3" stroke-width="4"/>
<path d="M108.406 129.885C111.415 137.533 114.33 140.4 121.517 142.996C114.29 145.836 111.468 148.753 108.406 156.107C104.974 148.786 102.167 145.841 95.2953 142.996C102.716 140.467 105.523 137.536 108.406 129.885Z" stroke="#32E3C3" stroke-width="4"/>
</svg>
