<svg width="181" height="181" viewBox="0 0 181 181" fill="none" xmlns="http://www.w3.org/2000/svg">
<path d="M61.2783 0.5V32.9605" stroke="#436D75" stroke-width="4"/>
<path d="M61.2783 89.5951V122.056" stroke="#436D75" stroke-width="4"/>
<path d="M122.056 61.2777L89.1384 61.2777" stroke="#436D75" stroke-width="4"/>
<path d="M32.9604 61.2777L0.499997 61.2777" stroke="#436D75" stroke-width="4"/>
<path d="M104.254 18.3014L82.4517 40.1036" stroke="#436D75" stroke-width="4"/>
<path d="M41.1777 81.3774L18.3011 104.254" stroke="#436D75" stroke-width="4"/>
<path d="M104.254 104.254L81.6173 81.6175" stroke="#436D75" stroke-width="4"/>
<path d="M41.1777 41.1781L18.3011 18.3014" stroke="#436D75" stroke-width="4"/>
<path d="M147.156 113.312V128.381" stroke="#436D75" stroke-width="4"/>
<path d="M147.156 165.367V181" stroke="#436D75" stroke-width="4"/>
<path d="M181 147.156L165.367 147.156" stroke="#436D75" stroke-width="4"/>
<path d="M128.381 147.156L113.312 147.156" stroke="#436D75" stroke-width="4"/>
<path d="M170.847 123.184L159.108 134.922" stroke="#436D75" stroke-width="4"/>
<path d="M134.922 159.108L123.184 170.847" stroke="#436D75" stroke-width="4"/>
<path d="M170.847 170.847L159.108 159.108" stroke="#436D75" stroke-width="4"/>
<path d="M134.922 134.922L123.184 123.184" stroke="#436D75" stroke-width="4"/>
</svg>
