<svg width="219" height="25" viewBox="0 0 219 25" fill="none" xmlns="http://www.w3.org/2000/svg">
<path fill-rule="evenodd" clip-rule="evenodd" d="M0.355957 24.7376H4.38758V0.286255H0.355957V24.7376ZM20.8003 24.7376L10.6855 14.4323C10.113 13.8359 9.44499 13.2156 9.44499 12.1183C9.44499 11.2834 9.96982 10.8302 10.4469 10.3053L19.6552 0.286255H14.6933L6.60616 9.44656C6.03362 10.1145 5.58036 11.2357 5.58036 12.166C5.58036 13.001 5.86663 14.2176 6.91628 15.3387L15.6952 24.7376H20.8003Z" fill="white"/>
<path fill-rule="evenodd" clip-rule="evenodd" d="M37.8808 24.7376V21.0639H30.6525C28.1238 21.0639 26.1676 20.6345 25.0702 18.7261C24.6408 17.9628 24.0683 16.4599 24.0683 12.7863C24.0683 9.16031 24.617 7.29962 25.2611 6.22615C26.4777 4.12691 28.5055 3.95992 30.8672 3.95992H37.5468V0.286255H28.9587C27.432 0.286255 24.116 0.500952 21.969 3.36355C20.156 5.7729 19.8936 9.375 19.8936 12.8578C19.8936 15.5534 20.0367 19.2748 22.0644 21.875C24.0445 24.4275 26.8356 24.7376 28.8633 24.7376H37.8808Z" fill="white"/>
<path fill-rule="evenodd" clip-rule="evenodd" d="M38.8354 24.7376H43.0818L45.2526 18.5592H55.5345L57.7292 24.7376H61.9755L53.9123 2.76717C53.1489 0.715648 52.2424 0 50.4055 0C48.4732 0 47.6621 0.691793 46.8987 2.76717L38.8354 24.7376ZM49.7852 5.31965C49.9045 4.96183 50.1192 4.31775 50.4055 4.31775C50.6917 4.31775 50.8826 4.98568 51.0257 5.31965L54.5087 15.2672H46.3023L49.7852 5.31965Z" fill="white"/>
<path fill-rule="evenodd" clip-rule="evenodd" d="M82.0614 0.286255H78.0298V10.3053H66.913V0.286255H62.8813V24.7376H66.913V13.979H78.0298V24.7376H82.0614V0.286255Z" fill="white"/>
<path fill-rule="evenodd" clip-rule="evenodd" d="M96.7093 24.7376V3.95992H105.083V0.286255H84.3521V3.95992H92.6777V24.7376H96.7093Z" fill="white"/>
<path fill-rule="evenodd" clip-rule="evenodd" d="M123.738 24.7376V21.0639H112.311C111.667 21.0639 111.19 21.0401 110.928 20.7538C110.737 20.5868 110.617 20.2052 110.617 19.7996V14.0744H123.285V10.4008H110.617V5.48665C110.617 5.12883 110.617 4.65173 110.951 4.2939C111.262 3.98379 111.691 3.93608 112.049 3.93608H123.595V0.262421H109.878C109.043 0.262421 108.017 0.33398 107.302 1.21661C106.848 1.81299 106.562 2.79104 106.562 3.76909V21.0878C106.562 22.042 106.634 23.1393 107.349 23.9504C108.041 24.7137 108.876 24.7137 109.783 24.7137H123.738V24.7376Z" fill="white"/>
<path fill-rule="evenodd" clip-rule="evenodd" d="M130.513 24.7376V16.0782H140.532C141.773 16.0782 143.013 15.625 143.801 14.8855C145.471 13.311 145.661 10.1622 145.661 8.18223C145.661 6.1307 145.518 3.36353 144.039 1.76524C142.727 0.310091 140.914 0.310089 139.793 0.310089H129.63C128.891 0.310089 127.913 0.453213 127.221 1.26428C126.481 2.09921 126.481 3.07726 126.481 3.98375V24.7614H130.513V24.7376ZM130.513 12.4046V5.41505C130.513 4.98566 130.513 4.58013 130.799 4.27001C131.109 3.91219 131.467 3.9599 131.754 3.9599H138.266C138.934 3.9599 140.079 3.98375 140.771 4.79482C141.439 5.60589 141.534 7.06104 141.534 8.15837C141.534 9.08871 141.463 10.6631 140.843 11.5219C140.151 12.4284 139.101 12.4284 138.218 12.4284H130.513V12.4046Z" fill="white"/>
<path fill-rule="evenodd" clip-rule="evenodd" d="M148.714 0.286257H152.627V18.2968C152.627 18.4637 152.627 18.8931 152.961 18.8931C153.247 18.8931 153.295 18.5353 153.438 18.2968L162.503 1.9084C163.075 0.858777 164.006 0 165.89 0C167.894 0 169.159 1.2166 169.159 3.31584V24.7137H165.246V6.77481C165.246 6.27386 164.96 6.08301 164.817 6.08301C164.745 6.08301 164.626 6.15458 164.34 6.67939L155.322 22.9485C154.368 24.666 153.151 25 151.863 25C150.122 25 148.69 24.0219 148.69 21.541V0.286257H148.714Z" fill="white"/>
<path fill-rule="evenodd" clip-rule="evenodd" d="M193.348 0.286255H189.317V10.3053H178.2V0.286255H174.168V24.7376H178.2V13.979H189.317V24.7376H193.348V0.286255Z" fill="white"/>
<path fill-rule="evenodd" clip-rule="evenodd" d="M197.762 0.286257H201.674V18.2968C201.674 18.4637 201.674 18.8931 202.008 18.8931C202.294 18.8931 202.342 18.5353 202.485 18.2968L211.55 1.9084C212.123 0.858777 213.053 0 214.938 0C216.942 0 218.206 1.2166 218.206 3.31584V24.7137H214.294V6.77481C214.294 6.27386 214.007 6.08301 213.864 6.08301C213.793 6.08301 213.673 6.15458 213.387 6.67939L204.37 22.9485C203.415 24.666 202.199 25 200.911 25C199.169 25 197.738 24.0219 197.738 21.541V0.286257H197.762Z" fill="white"/>
</svg>
