<svg width="260" height="28" viewBox="0 0 260 28" fill="none" xmlns="http://www.w3.org/2000/svg">
<path fill-rule="evenodd" clip-rule="evenodd" d="M0 27.5518H4.81166V0.319336H0V27.5518ZM24.3999 27.5518L12.3281 16.0743C11.6448 15.4101 10.8476 14.7193 10.8476 13.4972C10.8476 12.5673 11.474 12.0625 12.0434 11.478L23.0333 0.319336H17.1113L7.45949 10.5215C6.77618 11.2654 6.23523 12.5142 6.23523 13.5503C6.23523 14.4802 6.57688 15.8352 7.82962 17.0839L18.3071 27.5518H24.3999Z" fill="black"/>
<path fill-rule="evenodd" clip-rule="evenodd" d="M44.785 27.5518V23.4603H36.1582C33.1402 23.4603 30.8056 22.982 29.4959 20.8566C28.9834 20.0064 28.3001 18.3326 28.3001 14.2411C28.3001 10.2027 28.9549 8.1304 29.7237 6.93483C31.1757 4.59683 33.5958 4.41085 36.4144 4.41085H44.3864V0.319336H34.1367C32.3146 0.319336 28.3571 0.558452 25.7946 3.74664C23.6308 6.43003 23.3176 10.4418 23.3176 14.3208C23.3176 17.323 23.4885 21.4676 25.9085 24.3636C28.2716 27.2064 31.6028 27.5518 34.0228 27.5518H44.785Z" fill="black"/>
<path fill-rule="evenodd" clip-rule="evenodd" d="M45.9244 27.5512H50.9923L53.5832 20.6701H65.8544L68.4737 27.5512H73.5416L63.9183 3.08191C63.0072 0.797046 61.9253 0 59.733 0C57.4269 0 56.4588 0.770478 55.5477 3.08191L45.9244 27.5512ZM58.9928 5.92471C59.1351 5.52619 59.3914 4.80885 59.733 4.80885C60.0747 4.80885 60.3025 5.55276 60.4733 5.92471L64.6301 17.0037H54.836L58.9928 5.92471Z" fill="black"/>
<path fill-rule="evenodd" clip-rule="evenodd" d="M97.514 0.319336H92.7023V11.478H79.4346V0.319336H74.6229V27.5518H79.4346V15.5695H92.7023V27.5518H97.514V0.319336Z" fill="black"/>
<path fill-rule="evenodd" clip-rule="evenodd" d="M114.996 27.5518V4.41085H124.99V0.319336H100.248V4.41085H110.184V27.5518H114.996Z" fill="black"/>
<path fill-rule="evenodd" clip-rule="evenodd" d="M147.254 27.551V23.4595H133.616C132.848 23.4595 132.278 23.4329 131.965 23.1141C131.737 22.9281 131.595 22.503 131.595 22.0514V15.675H146.713V11.5835H131.595V6.11043C131.595 5.7119 131.595 5.18054 131.994 4.78202C132.364 4.43663 132.876 4.3835 133.303 4.3835H147.083V0.291992H130.712C129.716 0.291992 128.492 0.371691 127.637 1.35471C127.097 2.01892 126.755 3.10822 126.755 4.19751V23.486C126.755 24.5488 126.84 25.7709 127.694 26.6742C128.52 27.5244 129.517 27.5244 130.598 27.5244H147.254V27.551Z" fill="black"/>
<path fill-rule="evenodd" clip-rule="evenodd" d="M155.34 27.5516V17.9073H167.298C168.779 17.9073 170.259 17.4025 171.199 16.5789C173.192 14.8254 173.42 11.3184 173.42 9.11322C173.42 6.82835 173.249 3.74644 171.484 1.96637C169.918 0.345705 167.754 0.345703 166.416 0.345703H154.287C153.404 0.345703 152.237 0.505106 151.411 1.40843C150.529 2.33831 150.529 3.42761 150.529 4.4372V27.5781H155.34V27.5516ZM155.34 13.8158V6.0313C155.34 5.55307 155.34 5.10142 155.682 4.75603C156.052 4.3575 156.479 4.41064 156.821 4.41064H164.594C165.391 4.41064 166.757 4.4372 167.583 5.34052C168.38 6.24384 168.494 7.8645 168.494 9.08664C168.494 10.1228 168.409 11.8763 167.668 12.8328C166.843 13.8424 165.59 13.8424 164.537 13.8424H155.34V13.8158Z" fill="black"/>
<path fill-rule="evenodd" clip-rule="evenodd" d="M177.063 0.318816H181.733V20.3778C181.733 20.5638 181.733 21.042 182.131 21.042C182.473 21.042 182.53 20.6435 182.701 20.3778L193.52 2.12546C194.203 0.956454 195.313 0 197.563 0C199.954 0 201.463 1.35498 201.463 3.69298V27.5247H196.794V7.54538C196.794 6.98744 196.452 6.7749 196.281 6.7749C196.196 6.7749 196.054 6.8546 195.712 7.4391L184.95 25.5586C183.811 27.4715 182.359 27.8435 180.821 27.8435C178.743 27.8435 177.035 26.7542 177.035 23.9911V0.318816H177.063Z" fill="black"/>
<path fill-rule="evenodd" clip-rule="evenodd" d="M230.333 0.319336H225.522V11.478H212.254V0.319336H207.442V27.5518H212.254V15.5695H225.522V27.5518H230.333V0.319336Z" fill="black"/>
<path fill-rule="evenodd" clip-rule="evenodd" d="M235.6 0.318816H240.269V20.3778C240.269 20.5638 240.269 21.042 240.668 21.042C241.01 21.042 241.067 20.6435 241.237 20.3778L252.056 2.12546C252.74 0.956454 253.85 0 256.099 0C258.491 0 260 1.35498 260 3.69298V27.5247H255.331V7.54538C255.331 6.98744 254.989 6.7749 254.818 6.7749C254.733 6.7749 254.59 6.8546 254.249 7.4391L243.487 25.5586C242.348 27.4715 240.896 27.8435 239.358 27.8435C237.28 27.8435 235.572 26.7542 235.572 23.9911V0.318816H235.6Z" fill="black"/>
</svg>
