<svg width="35" height="35" viewBox="0 0 35 35" fill="none" xmlns="http://www.w3.org/2000/svg">
<path d="M17.5 35C27.165 35 35 27.165 35 17.5C35 7.83502 27.165 0 17.5 0C7.83502 0 0 7.83502 0 17.5C0 27.165 7.83502 35 17.5 35Z" fill="#039BE5"/>
<path d="M8.00773 17.1214L24.8806 10.6158C25.6638 10.3328 26.3477 10.8068 26.094 11.991L26.0954 11.9895L23.2225 25.5243C23.0096 26.4839 22.4394 26.7172 21.6417 26.2651L17.2667 23.0408L15.1565 25.0737C14.9231 25.307 14.7263 25.5039 14.2742 25.5039L14.5848 21.0516L22.6931 13.7264C23.0461 13.4158 22.6144 13.2408 22.1492 13.5499L12.129 19.8587L7.80939 18.5112C6.87168 18.2137 6.85127 17.5735 8.00773 17.1214Z" fill="white"/>
</svg>
