<svg width="33" height="35" viewBox="0 0 33 35" fill="none" xmlns="http://www.w3.org/2000/svg">
<path d="M31.7677 20.2604C32.8119 11.471 31.266 5.92202 28.4777 3.41223L28.4792 3.41077C23.9787 -0.875269 8.77999 -1.50964 3.39583 3.60327C0.97791 6.10431 0.126244 9.77494 0.0329104 14.3191C-0.0604229 18.8647 -0.171256 27.3799 7.76353 29.6899H7.77083L7.76353 33.2176C7.76353 33.2176 7.70958 34.6468 8.62249 34.9341C9.66666 35.2724 10.1392 34.6089 13.3869 30.7297C18.8177 31.2008 22.9885 30.1216 23.4625 29.9641C24.5592 29.5966 30.7644 28.7756 31.7677 20.2604ZM13.9221 28.2476C13.9221 28.2476 10.4848 32.5337 9.41583 33.6464C9.06583 34.0081 8.68228 33.9745 8.68812 33.257C8.68812 32.786 8.71437 27.4004 8.71437 27.4004C1.98708 25.4724 2.38374 18.2216 2.45666 14.4285C2.52958 10.6339 3.22374 7.52619 5.27124 5.43348C9.99478 1.00452 23.3196 1.99473 26.7146 5.18556C30.865 8.86494 29.3877 19.2599 29.3964 19.6143C28.5433 26.7222 23.515 27.1729 22.5904 27.4806C22.1952 27.6118 18.5275 28.5554 13.9221 28.2476Z" fill="#8E24AA"/>
<path d="M15.8237 6.2666C15.2622 6.2666 15.2622 7.1416 15.8237 7.14889C20.1797 7.18244 23.7672 10.2187 23.8066 15.7881C23.8066 16.3758 24.667 16.3685 24.6597 15.7808H24.6583C24.6116 9.77973 20.6945 6.30014 15.8237 6.2666Z" fill="#8E24AA"/>
<path d="M21.5535 14.8644C21.5404 15.4448 22.3994 15.4725 22.4067 14.8848C22.4781 11.5758 20.4379 8.85019 16.604 8.5629C16.0425 8.52206 15.9842 9.40436 16.5442 9.44519C19.8692 9.69748 21.6206 11.9666 21.5535 14.8644Z" fill="#8E24AA"/>
<path d="M20.6349 18.6288C19.9145 18.2117 19.1809 18.4713 18.8776 18.8811L18.2432 19.7022C17.9209 20.1192 17.3186 20.0638 17.3186 20.0638C12.9232 18.9015 11.7478 14.3019 11.7478 14.3019C11.7478 14.3019 11.6939 13.6792 12.0964 13.3453L12.8897 12.689C13.2864 12.374 13.5372 11.6157 13.1332 10.8705C12.0541 8.9207 11.3293 8.2484 10.9603 7.73215C10.5724 7.24653 9.98907 7.13715 9.3824 7.46528H9.36927C8.10782 8.2032 6.72678 9.58424 7.16865 11.0061C7.92261 12.5053 9.30802 17.2842 13.7239 20.8951C15.7991 22.6028 19.0832 24.3528 20.4774 24.7567L20.4905 24.7772C21.8643 25.2351 23.2001 23.8001 23.9132 22.5007V22.4905C24.2297 21.8619 24.1247 21.2669 23.6624 20.8776C22.8428 20.0784 21.6061 19.1961 20.6349 18.6288Z" fill="#8E24AA"/>
<path d="M17.2047 11.8178C18.6062 11.8995 19.2858 12.6315 19.3587 14.1351C19.3849 14.7228 20.2381 14.682 20.2118 14.0943C20.1185 12.1313 19.0947 11.0376 17.2514 10.9355C16.6899 10.902 16.6374 11.7843 17.2047 11.8178Z" fill="#8E24AA"/>
</svg>
