<svg width="35" height="35" viewBox="0 0 35 35" fill="none" xmlns="http://www.w3.org/2000/svg">
<path d="M16.6512 0.0202409C7.40779 0.460362 0.113397 8.15838 0.141438 17.4123C0.149976 20.2308 0.830414 22.8911 2.03074 25.2417L0.187811 34.1875C0.0881179 34.6714 0.524556 35.0952 1.00527 34.9813L9.77111 32.9045C12.0232 34.0263 14.5528 34.6743 17.2299 34.7151C26.6776 34.8594 34.5553 27.3577 34.8498 17.9135C35.1655 7.78999 26.8102 -0.463574 16.6512 0.0202409ZM27.1108 26.9695C24.5436 29.5366 21.1304 30.9504 17.4999 30.9504C15.3742 30.9504 13.339 30.4735 11.4507 29.5329L10.2299 28.9248L4.85554 30.1981L5.98681 24.7064L5.38539 23.5287C4.40512 21.6089 3.90808 19.533 3.90808 17.3586C3.90808 13.728 5.32186 10.3149 7.88901 7.74764C10.4332 5.20342 13.9021 3.76663 17.5002 3.76663C21.1306 3.76671 24.5437 5.18049 27.1109 7.74755C29.678 10.3147 31.0918 13.7279 31.0919 17.3583C31.0918 20.9565 29.655 24.4254 27.1108 26.9695Z" fill="#54CC41"/>
<path d="M25.9244 21.1229L22.5621 20.1574C22.1201 20.0306 21.644 20.1559 21.3219 20.4841L20.4997 21.3219C20.153 21.6751 19.6269 21.7886 19.168 21.603C17.5775 20.9593 14.2316 17.9844 13.3772 16.4964C13.1306 16.0671 13.1714 15.5305 13.4741 15.1388L14.1919 14.2101C14.4732 13.8463 14.5325 13.3576 14.3465 12.937L12.9319 9.73752C12.5931 8.9712 11.6138 8.74812 10.9741 9.28919C10.0356 10.0829 8.9222 11.289 8.78685 12.6252C8.54821 14.981 9.55853 17.9507 13.3791 21.5165C17.7928 25.636 21.3274 26.1803 23.6287 25.6228C24.934 25.3066 25.9771 24.0392 26.6354 23.0014C27.0843 22.2939 26.7299 21.3542 25.9244 21.1229Z" fill="#54CC41"/>
</svg>
